<svg width="55" height="48" viewBox="0 0 55 48" fill="none" xmlns="http://www.w3.org/2000/svg">
<path d="M54.773 38.6688C54.7444 38.7403 54.6872 38.826 54.6729 38.9118C54.1728 40.8266 52.7009 41.9984 50.7147 42.027C49.7858 42.0412 48.857 42.0412 47.9281 42.027C47.5995 42.027 47.4423 42.0841 47.3708 42.4699C46.7707 45.6852 43.9841 48.0001 40.7546 47.9858C37.5251 47.9858 34.7529 45.6566 34.1527 42.4414C34.0813 42.0841 33.9384 42.027 33.624 42.027C29.037 42.027 24.4642 42.0412 19.8772 42.027C19.5771 42.027 19.4342 42.1127 19.377 42.4271C18.6911 45.7423 16.0046 48.0001 12.7465 48.0001C9.47417 47.9858 6.77339 45.6852 6.11605 42.3413C6.10176 42.2556 6.07318 42.1699 6.0446 42.027C5.41585 42.027 4.80139 42.027 4.17263 42.027C1.70049 42.0127 0 40.3122 0 37.84C0 33.7817 0 29.7377 0 25.6794C0 25.6651 0 25.6508 0 25.6222C0 24.9363 0.285797 24.5791 0.785941 24.5648C1.30038 24.5505 1.60046 24.9363 1.60046 25.5936C1.60046 27.2655 1.60046 28.9517 1.60046 30.6237C1.60046 30.8094 1.60046 31.0095 1.60046 31.2238C9.04547 31.2238 16.4333 31.2238 23.864 31.2238C23.864 25.465 23.864 19.7205 23.864 13.8903C23.6783 13.8903 23.4925 13.8903 23.3067 13.8903C16.962 13.8903 10.6174 13.8903 4.27266 13.8903C2.55788 13.8903 1.60046 14.862 1.60046 16.591C1.60046 18.1772 1.60046 19.7634 1.60046 21.3638C1.60046 22.0355 1.31467 22.407 0.800231 22.407C0.285797 22.407 0 22.0498 0 21.3638C0 19.7777 0 18.1915 0 16.591C0 13.9903 1.67191 12.3041 4.27266 12.3041C12.6751 12.3041 21.0632 12.3041 29.4657 12.3041C29.68 12.3041 29.8944 12.3041 30.1659 12.3041C30.1659 11.8039 30.1659 11.3467 30.1659 10.8894C30.1944 8.84594 31.752 7.25977 33.7526 7.25977C35.7532 7.25977 37.3108 8.83165 37.3394 10.8894C37.3394 11.3324 37.3394 11.7754 37.3394 12.2612C37.568 12.2898 37.7681 12.3041 37.9824 12.3327C39.4685 12.6042 40.526 13.4187 41.0976 14.8048C42.2551 17.5913 43.3983 20.3778 44.5272 23.1644C44.813 23.8646 45.2416 24.2933 45.9704 24.5219C47.8567 25.1078 49.7144 25.7794 51.6006 26.3796C53.2297 26.894 54.33 27.88 54.7158 29.5805C54.7158 29.6091 54.7587 29.6234 54.7873 29.652C54.773 32.6671 54.773 35.668 54.773 38.6688ZM53.1439 32.8815C52.8581 32.8815 52.6438 32.8815 52.4294 32.8815C48.7284 32.8815 45.013 32.8815 41.3119 32.8815C41.1119 32.8815 40.9118 32.8957 40.7261 32.8386C40.3402 32.7386 40.1116 32.4528 40.1259 32.0526C40.1402 31.6239 40.3831 31.3524 40.8118 31.281C40.9833 31.2524 41.169 31.2667 41.3405 31.2667C45.0702 31.2667 48.7855 31.2667 52.5152 31.2667C52.7152 31.2667 52.9296 31.2667 53.1296 31.2667C53.2868 29.2661 52.7581 28.4802 50.9433 27.88C49.0713 27.2655 47.1994 26.6225 45.3131 26.0223C44.2414 25.6794 43.5269 25.0078 43.0982 23.9503C41.9836 21.1781 40.8404 18.4058 39.6972 15.6336C39.1828 14.3904 38.454 13.9045 37.1107 13.9045C33.4382 13.9045 29.7657 13.9045 26.0933 13.9045C25.9218 13.9045 25.7503 13.9045 25.5502 13.9045C25.5502 19.7205 25.5502 25.465 25.5502 31.2667C25.7789 31.2667 25.9789 31.2667 26.1647 31.2667C29.6943 31.2667 33.2239 31.2667 36.7535 31.2667C36.9107 31.2667 37.0821 31.2524 37.2393 31.281C37.668 31.3382 37.9252 31.5811 37.9681 32.0098C38.011 32.4671 37.7538 32.7528 37.3251 32.8529C37.1536 32.8957 36.9678 32.8815 36.7963 32.8815C33.2668 32.8815 29.7372 32.8815 26.2076 32.8815C25.9932 32.8815 25.7932 32.8815 25.5502 32.8815C25.5502 35.4108 25.5502 37.8829 25.5502 40.3693C25.636 40.3836 25.7074 40.4122 25.7789 40.4122C28.4368 40.4122 31.0947 40.4265 33.7526 40.3979C33.8812 40.3979 34.0956 40.1836 34.1241 40.0407C34.7958 36.754 37.5108 34.4819 40.7832 34.4819C44.027 34.4819 46.7564 36.7683 47.3851 40.0264C47.4423 40.2979 47.5137 40.4265 47.8138 40.4265C48.8427 40.4122 49.8858 40.4408 50.9147 40.4122C52.0722 40.3693 53.0868 39.4977 53.1296 38.3402C53.2011 36.5397 53.1439 34.7391 53.1439 32.8815ZM23.8783 32.91C16.4333 32.91 9.03118 32.91 1.60046 32.91C1.60046 34.6963 1.57188 36.4396 1.61475 38.1973C1.62904 39.2119 2.41498 40.1836 3.40098 40.3265C4.27266 40.4551 5.15863 40.355 6.0446 40.355C6.68765 36.4825 9.81712 34.5391 12.6036 34.4819C16.2047 34.4248 18.9483 37.1541 19.3627 40.0835C19.4056 40.3979 19.6057 40.4265 19.8629 40.4122C21.0775 40.4122 22.2922 40.4122 23.4925 40.4122C23.6068 40.4122 23.7354 40.3836 23.864 40.355C23.8783 37.8829 23.8783 35.425 23.8783 32.91ZM35.6246 41.241C35.6246 44.0704 37.9538 46.3854 40.7689 46.3711C43.584 46.3711 45.899 44.0418 45.8847 41.2124C45.8847 38.383 43.5697 36.0824 40.7403 36.0824C37.9252 36.0967 35.6246 38.4116 35.6246 41.241ZM17.8766 41.241C17.8766 38.3973 15.6045 36.0967 12.7608 36.0824C9.94573 36.0824 7.61649 38.383 7.6022 41.2124C7.58791 44.0275 9.91715 46.3711 12.7323 46.3711C15.5616 46.3854 17.8766 44.0847 17.8766 41.241ZM31.7949 12.2612C33.1096 12.2612 34.3957 12.2612 35.7246 12.2612C35.7246 11.6753 35.7675 11.1323 35.7103 10.5893C35.6103 9.6033 34.7529 8.87452 33.7812 8.87452C32.7952 8.86023 31.9235 9.57472 31.8092 10.5607C31.7377 11.1037 31.7949 11.6753 31.7949 12.2612Z" fill="#5C7ED6"/>
<path d="M10.36 24.9792C9.37404 24.9792 8.4452 24.9792 7.53065 24.9792C6.1874 24.9792 5.68726 24.479 5.68726 23.1358C5.68726 22.7071 5.68726 22.2784 5.68726 21.8497C5.70155 20.7351 6.24456 20.1778 7.37346 20.1635C8.17369 20.1492 8.97392 20.1635 9.77415 20.1635C9.94563 20.1635 10.1171 20.1492 10.36 20.1349C10.36 19.1632 10.36 18.2201 10.36 17.2769C10.36 16.0337 10.8745 15.5193 12.1034 15.5193C12.5893 15.5193 13.0608 15.5193 13.5467 15.5193C14.5898 15.5336 15.1614 16.0909 15.1614 17.1483C15.1757 18.1343 15.1614 19.106 15.1614 20.1635C15.6473 20.1635 16.076 20.1635 16.519 20.1635C17.1477 20.1635 17.7622 20.1349 18.3909 20.1778C19.2769 20.2349 19.777 20.7922 19.7913 21.6925C19.7913 21.9211 19.777 22.1641 19.7913 22.3927C19.9057 24.7077 19.4198 25.0935 17.1763 24.9935C16.6904 24.9649 16.2189 24.9935 15.733 24.9935C15.5615 24.9935 15.3901 24.9935 15.1614 24.9935C15.1614 25.9795 15.1614 26.9083 15.1614 27.8371C15.1614 29.1375 14.6327 29.6662 13.3609 29.6662C12.8608 29.6662 12.3606 29.6805 11.8605 29.6662C10.9459 29.6377 10.36 29.0661 10.36 28.1515C10.3457 27.1226 10.36 26.1081 10.36 24.9792ZM18.1909 21.7639C17.1477 21.7639 16.1474 21.7639 15.1471 21.7639C13.8753 21.7639 13.5753 21.4639 13.561 20.1921C13.561 19.1775 13.561 18.1629 13.561 17.1483C12.9894 17.1483 12.4892 17.1483 11.9605 17.1483C11.9605 18.2344 11.9605 19.2918 11.9605 20.3493C11.9605 21.3638 11.5747 21.7497 10.5744 21.7639C10.0457 21.7639 9.50264 21.7639 8.97392 21.7639C8.43091 21.7639 7.88789 21.7639 7.3163 21.7639C7.3163 22.3355 7.3163 22.8214 7.3163 23.3644C7.54494 23.3644 7.7307 23.3644 7.91647 23.3644C8.83102 23.3644 9.73128 23.3501 10.6458 23.3644C11.5318 23.3787 11.9319 23.8074 11.9462 24.7077C11.9462 24.9792 11.9462 25.2364 11.9462 25.5079C11.9462 26.3367 11.9462 27.1655 11.9462 28.0086C12.5178 28.0086 13.0037 28.0086 13.5467 28.0086C13.5467 26.8654 13.5467 25.7365 13.5467 24.6219C13.5467 23.8217 13.9468 23.393 14.7613 23.3644C15.5044 23.3358 16.2617 23.3644 17.0048 23.3501C17.3906 23.3501 17.7765 23.3501 18.1623 23.3501C18.1909 22.8071 18.1909 22.3355 18.1909 21.7639Z" fill="#5C7ED6"/>
<path d="M32.9523 2.01528C32.9523 1.62946 32.938 1.22934 32.9523 0.843515C32.9666 0.34337 33.2952 0.000413744 33.7239 0.000413744C34.1812 -0.0138761 34.5385 0.34337 34.5385 0.857804C34.5527 1.62946 34.5527 2.38682 34.5385 3.15847C34.5242 3.68719 34.1955 4.04444 33.7382 4.04444C33.2809 4.04444 32.9666 3.68719 32.938 3.15847C32.938 2.75835 32.9523 2.38682 32.9523 2.01528Z" fill="#5C7ED6"/>
<path d="M30.3515 4.57329C30.2372 4.48755 29.9657 4.37323 29.8228 4.15888C29.4513 3.58729 29.1083 2.97283 28.7939 2.35836C28.5653 1.91538 28.7082 1.47239 29.1083 1.25805C29.4941 1.05799 29.9228 1.14373 30.1658 1.55813C30.5373 2.15831 30.8945 2.77277 31.2089 3.41581C31.4661 3.95883 31.0946 4.559 30.3515 4.57329Z" fill="#5C7ED6"/>
<path d="M38.8397 2.05808C38.7682 2.20098 38.7254 2.35817 38.6396 2.48678C38.3252 3.04408 38.0252 3.61568 37.6965 4.15869C37.4393 4.58738 36.982 4.68741 36.5962 4.45878C36.2389 4.24443 36.096 3.80144 36.2961 3.38704C36.6248 2.75828 36.9677 2.14382 37.3392 1.52936C37.5393 1.20069 37.8966 1.01492 38.2538 1.21498C38.5253 1.37217 38.6968 1.68655 38.9254 1.91518C38.8968 1.97234 38.8683 2.01521 38.8397 2.05808Z" fill="#5C7ED6"/>
<path d="M34.1813 25.6221C32.3664 25.6221 30.5516 25.6221 28.7225 25.6221C27.5936 25.6221 27.1221 25.1505 27.1221 24.0359C27.1078 21.7353 27.1221 19.4346 27.1221 17.1196C27.1221 15.9907 27.6079 15.5049 28.7082 15.5049C31.3519 15.5049 33.9812 15.5049 36.6248 15.5049C37.5108 15.5049 37.868 15.7478 38.1967 16.5766C39.1398 18.9059 40.0687 21.2351 41.0118 23.5786C41.4834 24.7504 40.8975 25.6078 39.64 25.6221C37.8109 25.6364 35.9961 25.6221 34.1813 25.6221ZM28.7368 23.9788C32.3236 23.9788 35.8389 23.9788 39.4113 23.9788C39.3399 23.7787 39.297 23.6215 39.2399 23.4786C38.4539 21.5066 37.6537 19.5489 36.882 17.5769C36.7391 17.2054 36.5391 17.1196 36.1818 17.1196C33.8812 17.1339 31.5805 17.1339 29.2941 17.1339C29.1227 17.1339 28.9512 17.1339 28.7511 17.1339C28.7368 19.4346 28.7368 21.6781 28.7368 23.9788Z" fill="#5C7ED6"/>
<path d="M40.7403 43.6272C39.3971 43.6129 38.3396 42.5412 38.3539 41.1979C38.3682 39.8833 39.4256 38.8258 40.7403 38.8258C42.0693 38.8115 43.1553 39.8976 43.1553 41.2408C43.1553 42.5698 42.0836 43.6415 40.7403 43.6272ZM41.5405 41.2408C41.5548 40.7835 41.1976 40.4263 40.7403 40.4263C40.3116 40.4263 39.9687 40.7692 39.9687 41.1979C39.9544 41.6409 40.283 41.9839 40.7117 41.9982C41.169 42.041 41.5263 41.7124 41.5405 41.2408Z" fill="#5C7ED6"/>
<path d="M10.3601 41.2409C10.3601 39.8977 11.4318 38.8259 12.7608 38.8259C14.0898 38.8259 15.1758 39.9405 15.1615 41.2552C15.1472 42.5699 14.0755 43.6273 12.7751 43.6416C11.4318 43.6416 10.3601 42.5842 10.3601 41.2409ZM13.561 41.2266C13.561 40.7836 13.1752 40.4264 12.7322 40.4407C12.3035 40.455 11.9749 40.7979 11.9749 41.2409C11.9749 41.6982 12.3321 42.0411 12.7894 42.0269C13.2181 41.9983 13.561 41.641 13.561 41.2266Z" fill="#5C7ED6"/>
</svg>
