<svg width="51" height="49" viewBox="0 0 51 49" fill="none" xmlns="http://www.w3.org/2000/svg">
<path d="M50.0264 18.8292C48.0598 23.2877 46.0932 27.7337 44.1267 32.1922C43.2598 34.1515 41.9919 35.8219 40.3488 37.2411C39.0679 38.3463 37.8129 39.4766 36.5579 40.5944C36.4285 40.7074 36.338 40.8581 36.2345 41.0088C36.338 41.0716 36.3638 41.0968 36.3897 41.0968C37.6706 41.1721 37.8388 41.3479 37.8388 42.6039C37.8388 44.1989 37.8388 45.7939 37.8388 47.4015C37.8388 48.3058 37.5153 48.6323 36.5967 48.6323C29.028 48.6323 21.4592 48.6323 13.8905 48.6323C12.9977 48.6323 12.6614 48.3058 12.6614 47.4517C12.6614 45.7814 12.6614 44.0984 12.6614 42.428C12.6614 41.4107 12.9331 41.147 13.9681 41.1219C14.0328 41.1219 14.0975 41.1093 14.2915 41.0968C14.1492 40.8958 14.0587 40.72 13.9293 40.6069C12.6614 39.4641 11.3934 38.3212 10.0996 37.2159C8.48236 35.8219 7.22737 34.164 6.37346 32.2425C4.62683 28.3114 2.88019 24.3678 1.13356 20.4368C0.92655 19.9595 0.680727 19.4948 0.551347 19.005C0.253772 17.8747 0.745417 16.7444 1.72871 16.1666C2.72494 15.5764 3.96699 15.6768 4.87265 16.4681C5.1961 16.7444 5.4678 17.096 5.68775 17.4477C6.86511 19.2813 8.0166 21.1276 9.18102 22.9738C9.27158 23.1119 9.36215 23.2626 9.43978 23.3757C9.8538 23.2752 10.2031 23.137 10.5654 23.1119C11.5228 23.0366 12.2861 23.4008 12.8813 24.1292C14.0587 25.561 15.2748 26.9676 16.4263 28.4245C17.3579 29.605 18.4705 30.5972 19.6996 31.4638C20.1395 31.7778 20.5924 32.0918 21.0323 32.4058C22.6883 33.5989 24.2538 34.8674 25.1983 36.701C25.263 36.6759 25.3018 36.6759 25.3148 36.6633C26.1557 35.1437 27.3331 33.8752 28.7951 32.9458C31.7838 31.0368 34.1644 28.5626 36.2603 25.7996C36.6873 25.247 37.1401 24.7195 37.593 24.1794C38.4727 23.1245 39.5337 22.8482 40.8275 23.3505C40.8792 23.3757 40.9439 23.3882 41.0474 23.4133C41.138 23.2626 41.2415 23.1245 41.332 22.9863C42.5094 21.115 43.6868 19.2437 44.8641 17.3723C45.3816 16.5434 46.0674 15.9531 47.1024 15.8275C48.3056 15.6894 49.4313 16.355 49.8582 17.4477C49.9229 17.611 49.9876 17.7617 50.0523 17.9249C50.0264 18.2012 50.0264 18.5152 50.0264 18.8292ZM26.1945 41.0842C28.9245 41.0842 31.6026 41.0842 34.3714 41.0842C34.0867 40.1046 34.7595 39.6022 35.3805 39.0622C36.6097 38.0072 37.8 36.902 39.0291 35.8344C40.4911 34.5785 41.6037 33.084 42.38 31.3382C44.1137 27.4197 45.8604 23.5012 47.5941 19.5702C47.7493 19.2311 47.9693 18.892 48.021 18.5278C48.0598 18.2892 47.9175 17.9501 47.7364 17.7617C47.5035 17.5105 47.1542 17.5858 46.9083 17.7994C46.7272 17.9501 46.5719 18.1385 46.4426 18.3394C45.097 20.4745 43.7515 22.6095 42.4059 24.7446C42.3153 24.8828 42.2765 25.0586 42.2377 25.2219C42.0954 25.8624 42.0436 26.528 41.8107 27.1309C41.4355 28.1231 40.9698 29.1027 40.4911 30.0446C39.9865 31.0368 39.4172 32.0039 38.8609 32.9709C38.6409 33.3477 38.2916 33.5235 37.8388 33.4482C37.4118 33.3728 37.1142 33.1091 37.0754 32.7072C37.0496 32.4309 37.166 32.1294 37.2954 31.8783C38.1881 30.0823 39.1067 28.2863 40.0124 26.4903C40.1417 26.2266 40.2582 25.9252 40.2711 25.6489C40.2841 25.4354 40.1547 25.0963 39.9994 25.046C39.7795 24.9707 39.469 25.0712 39.2231 25.134C39.1326 25.1591 39.0808 25.2972 39.0032 25.3726C37.8 26.8295 36.5708 28.2612 35.4064 29.7306C34.1126 31.3633 32.4177 32.5313 30.7617 33.7496C29.7654 34.4906 28.7821 35.2693 27.9282 36.161C26.6474 37.5425 26.1428 39.2254 26.1945 41.0842ZM24.2409 41.0968C24.3185 40.1171 24.1374 39.2129 23.8139 38.3463C23.2576 36.7889 22.1708 35.6335 20.8641 34.6539C19.829 33.8752 18.781 33.1216 17.7331 32.3681C15.9606 31.0996 14.7444 29.3539 13.3729 27.7337C12.6743 26.9174 12.0015 26.0759 11.3029 25.247C11.07 24.9707 10.7983 24.8702 10.4489 25.0335C10.0996 25.1967 10.0867 25.4856 10.1772 25.7996C10.2419 26.0131 10.2937 26.2266 10.3843 26.415C11.2899 28.2486 12.2215 30.0697 13.1271 31.8908C13.2565 32.142 13.3729 32.456 13.36 32.7197C13.3341 33.1216 13.0366 33.3979 12.6096 33.4733C12.1438 33.5612 11.7945 33.3728 11.5487 32.9835C10.3066 30.9866 9.25865 28.8892 8.43061 26.6913C8.27536 26.2894 8.27536 25.8373 8.18479 25.4103C8.13304 25.1716 8.10716 24.9204 7.97778 24.7195C6.68398 22.6347 5.3643 20.5498 4.05756 18.465C3.97993 18.3268 3.88936 18.2012 3.78586 18.0757C3.46241 17.6738 3.0872 17.5482 2.73788 17.7366C2.37561 17.9249 2.27211 18.3394 2.47911 18.8041C4.23869 22.7979 6.02414 26.7918 7.77077 30.7856C8.68937 32.8956 10.0091 34.7167 11.8074 36.2238C12.9719 37.1908 14.0587 38.2458 15.2231 39.2129C15.8182 39.7027 16.2323 40.2176 16.1158 41.0088C16.1158 41.034 16.1417 41.0591 16.1676 41.0968C18.8457 41.0968 21.511 41.0968 24.2409 41.0968ZM24.215 46.7359C24.215 45.4674 24.215 44.2491 24.215 43.0309C20.9805 43.0309 17.7848 43.0309 14.5891 43.0309C14.5891 44.2868 14.5891 45.5051 14.5891 46.7359C17.8107 46.7359 20.9934 46.7359 24.215 46.7359ZM26.2204 46.7233C29.4549 46.7233 32.6636 46.7233 35.8463 46.7233C35.8463 45.4674 35.8463 44.2366 35.8463 43.0183C32.6247 43.0183 29.4291 43.0183 26.2204 43.0183C26.2204 44.2491 26.2204 45.4674 26.2204 46.7233Z" fill="#5C7ED6"/>
<path d="M26.2856 0.492432C27.3594 0.743616 28.4721 0.894327 29.5201 1.24599C34.7859 3.05452 38.2791 8.29172 37.7875 13.554C37.257 19.3313 33.0133 23.8526 27.2947 24.7694C20.3082 25.8872 13.8004 21.2654 12.7524 14.4458C11.7173 7.714 16.802 1.30878 23.7885 0.580346C23.9179 0.567787 24.0343 0.530109 24.1637 0.492432C24.8753 0.492432 25.574 0.492432 26.2856 0.492432ZM14.5637 12.7251C14.5637 18.427 19.3637 23.0614 25.2246 23.0614C31.0985 23.0614 35.8727 18.4019 35.8727 12.7126C35.8727 7.01068 31.0856 2.37632 25.2117 2.37632C19.3508 2.37632 14.5637 7.02324 14.5637 12.7251Z" fill="#5C7ED6"/>
<path d="M21.8092 16.0036C21.0459 16.0036 20.3084 16.0036 19.5709 16.0036C18.8076 16.0036 18.4453 15.6394 18.4453 14.8984C18.4453 13.4416 18.4453 11.9847 18.4453 10.5278C18.4453 9.78682 18.8076 9.43516 19.5709 9.4226C20.3084 9.4226 21.0459 9.4226 21.8351 9.4226C21.8351 8.66905 21.8351 7.95317 21.8351 7.23729C21.8351 6.4963 22.1973 6.14464 22.9607 6.13208C24.4744 6.13208 26.0011 6.13208 27.5149 6.13208C28.2394 6.13208 28.6146 6.4963 28.6146 7.21217C28.6276 7.92805 28.6146 8.64393 28.6146 9.4226C29.365 9.4226 30.0896 9.4226 30.8011 9.4226C31.6551 9.4226 31.9914 9.74914 32.0044 10.5906C32.0044 12.0224 32.0044 13.4416 32.0044 14.8733C32.0044 15.652 31.6421 16.0036 30.8529 16.0036C30.1284 16.0036 29.4038 16.0036 28.6146 16.0036C28.6146 16.707 28.6146 17.3852 28.6146 18.0759C28.6146 18.9802 28.2912 19.2942 27.3726 19.2942C25.9235 19.2942 24.4615 19.2942 23.0124 19.2942C22.1844 19.2942 21.848 18.9551 21.8351 18.1513C21.8351 17.4982 21.8351 16.8326 21.8351 16.1795C21.8351 16.1418 21.8221 16.1167 21.8092 16.0036ZM30.0507 11.3065C29.3003 11.3065 28.6146 11.3065 27.916 11.3065C26.9974 11.3065 26.6739 10.9925 26.6739 10.0882C26.6739 9.41004 26.6739 8.71928 26.6739 8.05364C25.6647 8.05364 24.7203 8.05364 23.7887 8.05364C23.7758 8.129 23.7758 8.15412 23.7758 8.1918C23.7758 8.78208 23.7758 9.38492 23.7758 9.97521C23.7758 11.0427 23.4912 11.3065 22.4044 11.3065C21.7316 11.3065 21.0717 11.3065 20.4119 11.3065C20.4119 12.2861 20.4119 13.1904 20.4119 14.1323C21.1623 14.1323 21.8868 14.1323 22.6114 14.1323C23.4394 14.1323 23.7758 14.4714 23.7758 15.2878C23.7758 15.9911 23.7758 16.6818 23.7758 17.3977C24.772 17.3977 25.7165 17.3977 26.648 17.3977C26.661 17.3349 26.6868 17.3098 26.6868 17.2847C26.6868 16.6316 26.6868 15.966 26.6998 15.3129C26.6998 14.4714 27.0362 14.1449 27.903 14.1449C28.6276 14.1449 29.3392 14.1449 30.0766 14.1449C30.0507 13.1653 30.0507 12.261 30.0507 11.3065Z" fill="#5C7ED6"/>
</svg>
