<svg width="49" height="49" viewBox="0 0 49 49" fill="#5C7ED6" xmlns="http://www.w3.org/2000/svg">
<path d="M4.01555 48.4929C3.32668 48.1923 3.13881 47.6412 3.21396 46.9273C3.60223 43.0571 6.34517 40.3518 10.2153 40.0637C10.2905 40.0637 10.3656 40.0512 10.4909 40.0386C10.4909 39.8382 10.4909 39.6629 10.4909 39.475C10.4909 34.6154 10.4909 29.7557 10.4909 24.8961C10.4909 21.9903 11.1171 19.2474 12.7203 16.7925C14.9873 13.2981 18.2939 11.457 22.377 11.0061C25.3704 10.6679 28.2511 11.1063 30.9064 12.5591C34.5762 14.5756 36.6428 17.7569 37.3942 21.815C37.5946 22.9047 37.6698 24.0194 37.6698 25.1216C37.6948 29.906 37.6823 34.6905 37.6823 39.4625C37.6823 39.6504 37.6823 39.8257 37.6823 39.8883C38.7344 40.1764 39.7614 40.3267 40.6507 40.74C43.3686 42.005 44.7714 44.2094 44.9593 47.2028C44.9968 47.8291 44.6962 48.2424 44.1451 48.4929C30.7811 48.4929 17.4046 48.4929 4.01555 48.4929ZM35.5155 40.0261C35.5155 39.8257 35.5155 39.6378 35.5155 39.45C35.5155 34.7281 35.528 30.0188 35.503 25.2969C35.503 24.4202 35.4654 23.5434 35.3276 22.6792C34.7891 19.2349 33.1609 16.4544 30.1173 14.6383C27.8503 13.2856 25.3579 12.8723 22.7652 13.1478C19.371 13.4985 16.603 14.989 14.6742 17.8571C13.2213 20.0114 12.6827 22.4412 12.6827 25.0088C12.6827 29.8559 12.6827 34.6905 12.6827 39.5376C12.6827 39.7005 12.6827 39.8633 12.6827 40.0386C20.3104 40.0261 27.8879 40.0261 35.5155 40.0261ZM42.6296 46.3136C42.3791 44.5351 40.7634 42.7941 38.8597 42.4184C37.9829 42.243 37.0561 42.2681 36.1543 42.2681C28.1133 42.2555 20.0599 42.2681 12.0189 42.2555C11.806 42.2555 11.5806 42.243 11.3676 42.2305C9.03801 42.1052 7.17181 42.8818 5.99447 44.9859C5.76902 45.3867 5.6563 45.8251 5.46843 46.3011C17.9181 46.3136 30.2551 46.3136 42.6296 46.3136Z" fill="#5C7ED6"/>
<path d="M0.0828373 24.2073C0.358384 23.5935 0.846853 23.3806 1.51067 23.3806C3.42697 23.4057 5.35579 23.3806 7.2721 23.3931C8.19893 23.3931 8.75003 24.1446 8.41186 24.9086C8.22398 25.3345 7.87329 25.5599 7.40987 25.5599C5.33075 25.5725 3.25162 25.5725 1.1725 25.5599C0.621405 25.5599 0.29576 25.2092 0.0703125 24.7583C0.0828373 24.583 0.0828373 24.3951 0.0828373 24.2073Z" fill="#5C7ED6"/>
<path d="M22.9909 4.69355C22.9909 3.67904 22.9658 2.66453 22.9909 1.65002C23.0159 0.785803 23.7674 0.272285 24.4939 0.585406C24.9322 0.773278 25.1577 1.12397 25.1577 1.57487C25.1702 3.65399 25.1827 5.73312 25.1577 7.81224C25.1451 8.47606 24.6567 8.92695 24.068 8.92695C23.4793 8.92695 23.0034 8.46353 22.9909 7.79971C22.9783 6.74763 23.0034 5.72059 22.9909 4.69355Z" fill="#5C7ED6"/>
<path d="M43.9072 23.3932C44.9217 23.3932 45.9362 23.3681 46.9508 23.4057C47.8651 23.4308 48.3786 24.3075 47.9402 25.0465C47.7148 25.4222 47.3766 25.585 46.9633 25.585C44.9217 25.585 42.8677 25.5976 40.8261 25.585C40.1372 25.585 39.6613 25.084 39.6738 24.4829C39.6864 23.8691 40.1623 23.4182 40.8637 23.4182C41.8657 23.3807 42.8927 23.3932 43.9072 23.3932Z" fill="#5C7ED6"/>
<path d="M37.1062 13.2856C36.4674 13.273 36.1167 13.0601 35.9289 12.6343C35.7285 12.1834 35.8287 11.7701 36.1543 11.4319C36.7179 10.8558 37.2941 10.2796 37.8702 9.70346C38.6467 8.92692 39.4108 8.15038 40.1873 7.38637C40.7259 6.8478 41.3897 6.81023 41.8406 7.27365C42.304 7.74959 42.2789 8.37583 41.7153 8.92692C40.4002 10.242 39.0976 11.5571 37.77 12.8597C37.5571 13.0726 37.244 13.1979 37.1062 13.2856Z" fill="#5C7ED6"/>
<path d="M11.3677 13.5362C11.2049 13.4485 10.9043 13.3483 10.7039 13.1604C9.3387 11.8203 7.97349 10.4551 6.62081 9.08985C6.13234 8.60138 6.14487 7.95009 6.58324 7.4992C7.0216 7.07335 7.6729 7.08588 8.17389 7.57435C9.51405 8.90198 10.8417 10.2421 12.1818 11.5823C12.5451 11.9455 12.6703 12.3714 12.4824 12.8598C12.3071 13.2982 11.9439 13.4861 11.3677 13.5362Z" fill="#5C7ED6"/>
<path d="M33.4992 25.9608C33.4992 26.1612 33.5242 26.4117 33.4992 26.6622C33.4491 27.2383 32.9982 27.6516 32.4471 27.6642C31.9085 27.6767 31.4326 27.2759 31.3574 26.6997C31.2823 26.1111 31.2948 25.5099 31.2197 24.9337C30.9692 23.0675 30.3429 21.3391 29.128 19.8612C28.5394 19.1473 27.8505 18.5962 26.9737 18.2705C26.2849 18.0075 25.9968 17.4314 26.2097 16.8302C26.4352 16.2164 27.0614 15.9659 27.7628 16.2415C29.6541 16.9679 30.9316 18.3582 31.896 20.0741C32.898 21.8777 33.399 23.8441 33.4992 25.9608Z" fill="#5C7ED6"/>
</svg>
