<svg width="50" height="49" viewBox="0 0 50 49" fill="none" xmlns="http://www.w3.org/2000/svg">
<path d="M28.5882 43.3968C26.0578 44.0934 23.5417 44.1076 20.9687 43.3826C20.6417 43.9512 20.3148 44.5056 19.9878 45.0742C19.405 46.0835 18.8221 47.1071 18.2251 48.1164C17.756 48.9266 17.1447 48.9551 16.5476 48.2301C15.9506 47.5051 15.3393 46.7801 14.7707 46.0409C14.5433 45.7424 14.3016 45.6713 13.9604 45.7281C12.809 45.9272 11.6433 46.0835 10.4918 46.2826C10.0654 46.3536 9.70997 46.3252 9.45409 45.9414C9.21243 45.5718 9.29772 45.2164 9.51095 44.8468C10.7619 42.686 12.0129 40.511 13.2781 38.3645C13.4629 38.066 13.4487 37.8527 13.2639 37.5684C8.01832 29.2808 12.9511 18.349 22.6461 16.7853C30.223 15.5486 37.4161 20.9931 38.3116 28.6126C38.6955 31.8538 38.0273 34.8533 36.2788 37.5969C36.1082 37.8812 36.094 38.066 36.2646 38.3503C37.5156 40.4968 38.7523 42.6434 40.0033 44.7899C40.2307 45.1737 40.3871 45.5718 40.0886 45.9698C39.8043 46.3536 39.4204 46.3394 38.9798 46.2683C37.8567 46.0693 36.7337 45.913 35.6249 45.7281C35.2553 45.6571 35.0136 45.7424 34.772 46.0551C34.2033 46.8085 33.5921 47.5193 32.995 48.2443C32.4122 48.9409 31.8009 48.8982 31.346 48.1306C30.4647 46.6379 29.5975 45.1311 28.7304 43.6243C28.7019 43.5532 28.6451 43.4821 28.5882 43.3968ZM24.8069 18.349C18.1966 18.349 12.8658 23.6656 12.8658 30.2759C12.8658 36.8861 18.1966 42.2169 24.7927 42.2169C31.4029 42.2169 36.7195 36.9003 36.7195 30.2901C36.7337 23.6656 31.4171 18.349 24.8069 18.349ZM17.2584 46.3963C17.9692 45.1595 18.6373 43.9939 19.3339 42.7997C17.5285 41.9752 15.9932 40.8664 14.6428 39.4165C13.6903 41.0655 12.7663 42.6718 11.7854 44.3635C12.7521 44.2071 13.5908 44.0934 14.4153 43.937C14.9271 43.8375 15.3109 43.9796 15.6236 44.3919C16.1496 45.06 16.6756 45.6855 17.2584 46.3963ZM30.2372 42.7997C30.9338 44.0223 31.6161 45.1737 32.3127 46.4105C32.8529 45.7424 33.3931 45.1311 33.8764 44.4914C34.246 44.0081 34.6582 43.8517 35.2553 43.9796C36.0514 44.1502 36.8616 44.2355 37.7714 44.3777C36.7906 42.6718 35.8666 41.0655 34.9283 39.4307C33.5921 40.8807 32.0568 41.9752 30.2372 42.7997Z" fill="#5C7ED6"/>
<path d="M24.7783 0.750244C25.1337 1.09142 25.4607 1.29043 25.6171 1.57475C26.1004 2.48454 26.5268 3.40855 26.9675 4.34678C27.0955 4.61687 27.2518 4.73059 27.5504 4.77324C28.5312 4.88697 29.5121 5.04334 30.493 5.17128C30.9194 5.22814 31.2891 5.34186 31.4312 5.81098C31.5734 6.25166 31.3459 6.55018 31.0474 6.83449C30.3508 7.48841 29.6685 8.17075 28.9719 8.81045C28.7018 9.06633 28.5881 9.29378 28.6734 9.6776C28.8866 10.6443 29.043 11.6251 29.2136 12.606C29.2847 13.004 29.2278 13.3452 28.8724 13.6011C28.5455 13.8428 28.2185 13.7859 27.8773 13.6011C26.9533 13.1035 26.0435 12.5918 25.1053 12.1369C24.9205 12.0516 24.622 12.0516 24.4372 12.1369C23.5274 12.5918 22.646 13.0751 21.7646 13.5584C21.395 13.7575 21.0397 13.8712 20.67 13.6011C20.3004 13.331 20.272 12.9756 20.3573 12.5634C20.5563 11.5967 20.6985 10.6158 20.8975 9.63496C20.9544 9.32221 20.8975 9.10898 20.6558 8.88153C19.9308 8.2134 19.2201 7.51684 18.4951 6.83449C18.1965 6.55018 17.9549 6.26587 18.097 5.81098C18.2392 5.35608 18.6088 5.21392 19.0353 5.17128C20.0303 5.04334 21.0396 4.9154 22.0347 4.74481C22.2195 4.71638 22.447 4.54579 22.5323 4.38942C23.0156 3.46541 23.4279 2.49876 23.9254 1.58896C24.1244 1.29043 24.4372 1.09142 24.7783 0.750244ZM27.2518 11.3266C27.1239 10.5732 27.0244 9.90505 26.8822 9.25114C26.7827 8.78202 26.9107 8.42663 27.2518 8.11389C27.7494 7.659 28.2185 7.18988 28.7729 6.66391C28.0195 6.55018 27.3656 6.42224 26.6974 6.36538C26.1857 6.32273 25.9014 6.06686 25.7023 5.62617C25.4323 5.04334 25.1337 4.4605 24.8068 3.77815C24.494 4.41785 24.1955 4.92961 23.9823 5.48402C23.7406 6.08107 23.3426 6.36538 22.7029 6.42224C22.1058 6.46489 21.523 6.57861 20.9544 6.64969C21.4093 7.13302 21.8357 7.63056 22.3048 8.07125C22.6744 8.42663 22.8308 8.78202 22.7029 9.29378C22.5465 9.91927 22.4754 10.5732 22.3475 11.3124C23.0156 10.9712 23.5984 10.6727 24.1813 10.3457C24.6077 10.1041 25.0058 10.1041 25.4323 10.3457C25.9867 10.6727 26.5695 10.957 27.2518 11.3266Z" fill="#5C7ED6"/>
<path d="M39.4204 21.448C38.7522 21.448 38.3826 20.9931 38.4822 20.396C38.6527 19.4009 38.8233 18.4059 39.0223 17.4108C39.1076 17.0269 39.0366 16.7569 38.7238 16.4868C38.013 15.8471 37.3449 15.1647 36.6483 14.5108C36.3498 14.2265 36.1366 13.928 36.2787 13.4873C36.4209 13.0466 36.7763 12.9187 37.1743 12.8618C38.141 12.7339 39.1076 12.5917 40.0743 12.478C40.4155 12.4353 40.6287 12.3074 40.7851 11.9662C41.1689 11.1133 41.6096 10.2746 42.0076 9.42164C42.1924 9.00939 42.4056 8.66821 42.9174 8.66821C43.4292 8.66821 43.6282 9.05203 43.813 9.45007C44.211 10.303 44.6375 11.1275 45.0213 11.9946C45.1777 12.35 45.4051 12.478 45.7889 12.5206C46.7698 12.6343 47.7507 12.7907 48.7316 12.9187C49.1154 12.9755 49.3997 13.1461 49.5276 13.5157C49.6556 13.9137 49.4992 14.1981 49.2291 14.4682C48.4757 15.1931 47.708 15.9039 46.9688 16.6573C46.8267 16.7995 46.7414 17.098 46.7698 17.297C46.9262 18.3063 47.1252 19.3157 47.31 20.325C47.3811 20.723 47.3526 21.1352 46.9688 21.2916C46.6845 21.4053 46.258 21.4196 45.988 21.2916C45.0924 20.8651 44.2252 20.3818 43.3723 19.8843C43.0453 19.6995 42.7895 19.671 42.4483 19.8701C41.6096 20.3534 40.7424 20.8083 39.8753 21.2632C39.7047 21.3485 39.5057 21.4196 39.4204 21.448ZM39.0792 14.3544C39.5341 14.852 39.9464 15.3353 40.4012 15.776C40.7851 16.1456 40.9414 16.5152 40.8135 17.0554C40.6571 17.6809 40.586 18.3206 40.4581 19.0313C41.0694 18.7044 41.6238 18.4627 42.1213 18.1358C42.6757 17.7804 43.1591 17.8088 43.6993 18.15C44.211 18.4627 44.7512 18.7186 45.3483 19.0456C45.2203 18.3063 45.135 17.6382 44.9929 16.9843C44.8791 16.4868 45.0355 16.1456 45.3909 15.8044C45.8458 15.3495 46.2723 14.852 46.7272 14.3686C46.1728 14.2834 45.5757 14.1696 44.9929 14.127C44.3674 14.0843 43.9836 13.8 43.7419 13.2314C43.5145 12.677 43.2159 12.1368 42.9174 11.4971C42.562 12.2079 42.2493 12.8192 41.965 13.4446C41.7802 13.8711 41.4674 14.0559 41.0267 14.1128C40.3728 14.1696 39.7189 14.2691 39.0792 14.3544Z" fill="#5C7ED6"/>
<path d="M11.1457 20.5241C11.1599 21.249 10.4775 21.6471 9.82363 21.3201C8.92805 20.851 8.03247 20.3819 7.16533 19.8844C6.83837 19.6995 6.58249 19.6711 6.25553 19.8701C5.4026 20.3677 4.50702 20.8084 3.63987 21.2917C3.28449 21.4907 2.94331 21.5476 2.58792 21.3059C2.24675 21.05 2.2041 20.7089 2.27518 20.3108C2.4742 19.3015 2.67322 18.2922 2.81537 17.2829C2.8438 17.0697 2.73008 16.7711 2.57371 16.6148C1.86293 15.8898 1.12372 15.2074 0.398731 14.5109C0.114421 14.2408 -0.0845968 13.9565 0.0575585 13.53C0.199714 13.1178 0.49824 12.9614 0.896275 12.9045C1.86293 12.7766 2.82959 12.6344 3.79625 12.5207C4.18006 12.4781 4.42173 12.3501 4.59232 11.9663C4.97613 11.0707 5.43103 10.2178 5.8575 9.33642C6.02808 8.96682 6.25553 8.71094 6.69621 8.71094C7.12268 8.71094 7.36435 8.98103 7.53493 9.33642C7.97561 10.2462 8.41629 11.1418 8.84276 12.0658C8.98492 12.3785 9.18393 12.5065 9.52511 12.5491C10.5202 12.6629 11.5295 12.8192 12.5246 12.9472C12.9084 12.9898 13.2638 13.1462 13.2922 13.5442C13.3207 13.857 13.2069 14.2692 13.0079 14.4824C12.3256 15.2217 11.5864 15.9182 10.8329 16.5863C10.5486 16.8422 10.506 17.0839 10.5771 17.4251C10.7619 18.4486 10.9609 19.5147 11.1457 20.5241ZM9.12707 19.0314C9.01335 18.3633 8.95648 17.7662 8.80011 17.1976C8.61531 16.5437 8.81433 16.0888 9.29766 15.6481C9.73834 15.2643 10.1079 14.7952 10.506 14.3545C9.96579 14.2834 9.4256 14.1413 8.88541 14.1413C8.11777 14.1271 7.6913 13.7432 7.43542 13.0609C7.2364 12.5491 6.96631 12.0658 6.682 11.483C6.35504 12.1653 6.07073 12.7055 5.81485 13.2741C5.5874 13.8001 5.23201 14.0702 4.64918 14.1128C4.03791 14.1555 3.44086 14.2692 2.91488 14.3403C3.36978 14.852 3.81046 15.3638 4.27957 15.8614C4.5781 16.1741 4.70604 16.4868 4.60653 16.9133C4.46438 17.5814 4.36487 18.2638 4.23693 19.0172C4.90506 18.6618 5.51632 18.3491 6.12759 18.0079C6.4972 17.7947 6.85259 17.7805 7.22219 18.0079C7.81924 18.3491 8.43051 18.6618 9.12707 19.0314Z" fill="#5C7ED6"/>
<path d="M33.1939 30.3043C33.1796 34.9244 29.3983 38.6915 24.7783 38.6773C20.1582 38.663 16.3911 34.8817 16.4053 30.2617C16.4195 25.6416 20.2009 21.8745 24.8209 21.8887C29.4267 21.8887 33.1939 25.6843 33.1939 30.3043ZM24.8067 23.5946C21.1391 23.5946 18.1396 26.5656 18.1112 30.2474C18.0827 33.9293 21.0964 36.9572 24.7925 36.9714C28.4743 36.9714 31.5022 33.9435 31.488 30.2617C31.4596 26.5941 28.4743 23.5946 24.8067 23.5946Z" fill="#5C7ED6"/>
<path d="M23.4422 31.9817C24.6932 30.7165 25.9015 29.5224 27.0956 28.3141C27.2235 28.1862 27.3372 28.0582 27.4794 27.9445C27.8632 27.6602 28.247 27.6744 28.5882 28.0014C28.9294 28.3283 28.9436 28.7263 28.6593 29.1102C28.5029 29.3234 28.3039 29.494 28.1049 29.693C26.7402 31.0577 25.3755 32.4224 24.0108 33.7871C23.3711 34.4268 22.8451 34.3557 22.3902 33.5881C21.9069 32.7493 21.4094 31.8964 20.9403 31.0577C20.6133 30.4749 20.6986 29.9915 21.1819 29.7356C21.6368 29.494 22.0775 29.6646 22.4045 30.219C22.7456 30.7734 23.0726 31.3278 23.4422 31.9817Z" fill="#5C7ED6"/>
</svg>
