<svg width="49" height="49" viewBox="0 0 49 49" fill="none" xmlns="http://www.w3.org/2000/svg">
<path d="M43.228 48.7502C42.9179 48.7502 42.6077 48.7502 42.2879 48.7502C42.2298 48.7309 42.1813 48.6921 42.1135 48.6824C40.5242 48.3723 39.4678 47.4419 39.0414 45.8914C38.6247 44.3989 39.0511 43.0906 40.1559 42.0052C40.3013 41.8599 40.4079 41.6176 40.4079 41.4141C40.4272 38.8363 40.4176 36.2584 40.4176 33.6806C40.4176 33.5643 40.4079 33.4383 40.3982 33.3123C30.0772 33.3123 19.7852 33.3123 9.47389 33.3123C9.47389 36.084 9.4642 38.8169 9.48358 41.5498C9.48358 41.7145 9.63864 41.9083 9.76462 42.0343C11.2861 43.488 11.4121 45.746 10.0747 47.3644C9.42543 48.1494 8.55323 48.5273 7.59382 48.7406C7.2837 48.7406 6.97359 48.7406 6.65378 48.7406C6.59563 48.7212 6.54718 48.6824 6.48903 48.6727C4.93846 48.3626 3.87244 47.4323 3.44603 45.872C3.02931 44.3699 3.46541 43.0713 4.57989 41.9859C4.71556 41.8502 4.82216 41.6176 4.82216 41.4335C4.84154 38.8363 4.83185 36.2487 4.83185 33.6515C4.83185 33.5352 4.81247 33.4092 4.79309 33.2639C4.03718 33.2639 3.30066 33.2833 2.57383 33.2639C1.6241 33.2348 0.99418 32.6049 0.974798 31.6648C0.965107 31.1609 0.965107 30.6667 0.974798 30.1627C0.99418 29.4553 1.42059 28.835 2.07958 28.7091C2.50599 28.6218 2.52537 28.4086 2.52537 28.0694C2.51568 24.5419 2.51568 21.0046 2.52537 17.4771C2.52537 17.2445 2.52537 17.0119 2.55445 16.7793C2.66105 15.8199 3.18437 15.1512 4.08564 14.8314C5.56838 14.3081 7.10926 15.3644 7.15772 16.9538C7.18679 17.981 7.16741 18.9986 7.16741 19.958C7.87486 19.7545 8.54354 19.4347 9.22192 19.3765C10.4139 19.2893 11.6253 19.3087 12.8173 19.3959C14.0093 19.4831 14.9106 20.1518 15.5502 21.15C15.7246 21.4214 15.8506 21.7218 15.9669 21.9447C16.8488 21.6442 17.6919 21.2081 18.5641 21.1112C20.2019 20.9271 21.8591 20.9465 23.5066 20.8883C23.7198 20.8787 23.933 20.8883 24.1656 20.8883C24.1656 19.3087 24.1656 17.7872 24.1656 16.2075C23.6423 16.2075 23.1577 16.2075 22.6247 16.2075C22.6247 15.1609 22.6247 14.1627 22.6247 13.1258C22.1305 13.1258 21.6847 13.1258 21.2389 13.1258C20.1826 13.1161 19.5623 12.4959 19.5526 11.4298C19.5429 10.5092 19.5526 9.58852 19.5526 8.66787C19.5526 8.35775 19.5526 8.05733 19.5526 7.74722C19.4266 7.72783 19.3685 7.71814 19.3104 7.71814C17.6047 7.71814 15.9088 7.72783 14.2031 7.70845C13.893 7.70845 13.8155 7.8732 13.7186 8.10579C12.8852 10.0537 12.0517 12.0016 11.2086 13.9495C11.1504 14.0852 11.0826 14.2209 10.976 14.4438C9.88091 11.4589 8.82459 8.56127 7.72949 5.56672C7.46783 5.95436 7.24494 6.2451 7.0705 6.5649C6.90575 6.86533 6.69254 6.96224 6.36305 6.95255C4.72525 6.93316 3.08746 6.94285 1.43997 6.94285C1.2946 6.94285 1.13955 6.94285 1.00387 6.94285C1.00387 6.39046 1.00387 5.9156 1.00387 5.40197C2.48661 5.40197 3.93058 5.38259 5.38425 5.41166C5.83973 5.42135 6.0917 5.27599 6.32428 4.89803C6.89606 3.98707 7.5066 3.10518 8.14621 2.14576C9.1347 4.85927 10.0941 7.49525 11.102 10.2475C11.6738 8.92953 12.1874 7.74722 12.6816 6.55521C12.7979 6.26448 12.953 6.16757 13.2631 6.16757C15.1819 6.18695 17.1008 6.17726 19.0293 6.17726C19.1941 6.17726 19.3588 6.17726 19.5042 6.17726C19.5332 6.08035 19.5429 6.04158 19.5429 6.01251C19.5429 4.86896 19.5429 3.7351 19.5526 2.59155C19.5526 1.3414 20.1438 0.750244 21.3842 0.750244C23.7779 0.750244 26.162 0.750244 28.5557 0.750244C29.8058 0.750244 30.397 1.3414 30.397 2.58186C30.397 4.62668 30.397 6.6715 30.397 8.71632C30.397 8.88107 30.397 9.04582 30.397 9.26872C30.6005 9.26872 30.7555 9.26872 30.9009 9.26872C32.2577 9.26872 33.6144 9.2881 34.9809 9.25903C35.3394 9.24934 35.5526 9.36563 35.7271 9.67574C35.9015 9.99555 36.1341 10.2863 36.3764 10.6545C37.4618 7.66 38.5278 4.75267 39.6132 1.74843C40.3788 3.55097 41.1056 5.24691 41.8421 6.95255C42.0554 7.45648 42.162 8.14455 42.5496 8.38683C42.9469 8.64849 43.6253 8.48374 44.1874 8.49343C45.7767 8.51281 47.3661 8.51281 48.9651 8.53219C48.9651 9.03613 48.9651 9.53038 48.9651 10.0343C46.5908 10.0343 44.2165 10.0343 41.8421 10.044C41.5611 10.044 41.4351 9.94709 41.3285 9.69513C40.9118 8.68725 40.4757 7.68907 40.0493 6.68119C39.9621 6.46799 39.8555 6.25479 39.7295 5.97374C38.741 8.69694 37.7816 11.3329 36.8028 14.0077C36.7156 13.9204 36.6865 13.9011 36.6671 13.8817C36.0566 12.9707 35.446 12.0694 34.8549 11.1585C34.6901 10.9065 34.5254 10.7902 34.2153 10.8096C33.6435 10.8387 33.062 10.8193 32.4806 10.8193C31.8022 10.8193 31.1141 10.8193 30.397 10.8193C30.397 11.0228 30.397 11.1585 30.397 11.2942C30.3873 12.5734 29.8155 13.1452 28.5266 13.1452C28.1292 13.1452 27.7319 13.1452 27.2861 13.1452C27.2861 14.2112 27.2861 15.1997 27.2861 16.2463C26.7531 16.2463 26.2686 16.2463 25.7743 16.2463C25.7743 17.826 25.7743 19.3378 25.7743 20.898C25.9972 20.898 26.1813 20.898 26.3655 20.898C30.6392 20.898 34.9227 20.8399 39.1965 20.9271C42.317 20.9949 44.672 22.5164 46.2807 25.1912C46.9106 26.2378 47.2207 27.3911 47.3758 28.6121C48.1898 28.6606 48.6744 29.1161 48.9554 29.8138C48.9554 30.5601 48.9554 31.316 48.9554 32.0622C48.6065 32.9731 47.9282 33.3317 46.9784 33.2833C46.3582 33.2542 45.738 33.2736 45.1274 33.2736C45.1177 33.3995 45.0984 33.4577 45.0984 33.5255C45.0984 36.1809 45.0887 38.8363 45.1081 41.4916C45.1081 41.6757 45.2437 41.8986 45.3891 42.0246C46.9203 43.488 47.0463 45.7654 45.6895 47.3935C45.0305 48.1688 44.168 48.5274 43.228 48.7502ZM2.54476 31.6648C17.5078 31.6648 32.4418 31.6648 47.3661 31.6648C47.3661 31.1609 47.3661 30.6957 47.3661 30.1724C45.8252 30.1724 44.3037 30.1724 42.7919 30.1724C42.7919 29.62 42.7919 29.1355 42.7919 28.5928C43.7998 28.5928 44.7786 28.5928 45.8252 28.5928C45.7089 28.1082 45.6314 27.6818 45.4957 27.2651C44.5169 24.2802 41.9003 22.4195 38.6635 22.4195C32.7131 22.4098 26.7628 22.4292 20.8125 22.4098C19.2038 22.4002 17.7307 22.8072 16.3449 23.5922C16.2383 23.6503 16.1026 23.7375 16.0832 23.8344C15.9088 24.7745 15.4339 25.5401 14.7265 26.1991C15.5987 26.8096 16.1026 27.6333 16.3643 28.6315C24.6501 28.6315 32.8876 28.6315 41.1541 28.6315C41.1541 29.1548 41.1541 29.6491 41.1541 30.1821C28.2649 30.1821 15.4145 30.1821 2.53506 30.1821C2.54476 30.6957 2.54476 31.1609 2.54476 31.6648ZM28.7786 11.5752C28.7786 8.46436 28.7786 5.40197 28.7786 2.34927C26.2007 2.34927 23.6713 2.34927 21.1226 2.34927C21.1226 5.44073 21.1226 8.49343 21.1226 11.5752C23.681 11.5752 26.2201 11.5752 28.7786 11.5752ZM10.8694 25.511C11.383 25.511 11.8967 25.5304 12.4103 25.511C13.6411 25.4528 14.6102 24.445 14.6199 23.2142C14.6296 22.0028 13.6604 20.9562 12.4297 20.9077C11.4024 20.869 10.3655 20.869 9.33821 20.9077C8.11714 20.9465 7.14803 22.0028 7.15772 23.2142C7.16741 24.4159 8.12683 25.4335 9.31883 25.4916C9.84215 25.5304 10.3558 25.511 10.8694 25.511ZM5.59745 28.5928C5.60714 28.4474 5.61683 28.3505 5.61683 28.2633C5.61683 24.6 5.61683 20.9368 5.61683 17.2639C5.61683 17.167 5.61683 17.0797 5.59745 16.9828C5.52961 16.537 5.22919 16.2366 4.83185 16.2366C4.42483 16.2366 4.10502 16.5661 4.05657 17.0216C4.04688 17.1185 4.05657 17.2057 4.05657 17.3026C4.05657 20.9174 4.05657 24.5419 4.05657 28.1567C4.05657 28.2923 4.07595 28.428 4.08564 28.5831C4.59927 28.5928 5.07413 28.5928 5.59745 28.5928ZM6.4115 33.2929C6.40181 33.448 6.39212 33.5643 6.39212 33.6903C6.39212 36.8302 6.39212 39.9701 6.39212 43.11C6.39212 43.2166 6.39212 43.3329 6.4115 43.4395C6.48903 43.9144 6.91544 44.1954 7.38061 44.0598C7.85548 43.9144 7.933 43.5267 7.933 43.0906C7.92331 39.9507 7.933 36.8108 7.933 33.6709C7.933 33.5546 7.91362 33.4286 7.90393 33.2929C7.39999 33.2929 6.93482 33.2929 6.4115 33.2929ZM42.0166 33.2929C42.0069 33.4286 41.9972 33.5255 41.9972 33.6128C41.9972 36.7817 41.9972 39.9507 41.9972 43.1197C41.9972 43.2263 41.9972 43.3426 42.0166 43.4492C42.0941 43.8562 42.3461 44.0694 42.7628 44.0791C43.257 44.0888 43.5187 43.7496 43.5187 43.11C43.5187 39.9604 43.5187 36.8011 43.5187 33.6515C43.5187 33.5352 43.4993 33.4189 43.4799 33.2929C42.9857 33.2929 42.5205 33.2929 42.0166 33.2929ZM7.36123 28.5928C9.82277 28.5928 12.2455 28.5928 14.6877 28.5928C14.4454 27.769 13.6604 27.1294 12.7689 27.11C11.6156 27.081 10.4624 27.081 9.29945 27.11C8.42725 27.1197 7.67134 27.7206 7.36123 28.5928ZM40.5823 44.2051C40.2625 45.2421 40.6405 46.2693 41.503 46.8217C42.3655 47.3741 43.5187 47.2869 44.2843 46.6182C44.9821 45.998 45.2534 44.9998 44.9142 44.2826C43.7901 46.2112 41.5417 46.0174 40.5823 44.2051ZM4.98691 44.2342C4.6768 45.2518 5.04506 46.2596 5.88818 46.812C6.76038 47.3838 7.933 47.2869 8.70829 46.5988C9.40605 45.9689 9.65802 44.9804 9.30914 44.273C8.32065 46.0852 6.05293 46.1433 4.98691 44.2342ZM25.6968 13.1645C25.1832 13.1645 24.718 13.1645 24.2237 13.1645C24.2237 13.6782 24.2237 14.1627 24.2237 14.6764C24.7277 14.6764 25.2025 14.6764 25.6968 14.6764C25.6968 14.1627 25.6968 13.6879 25.6968 13.1645Z" fill="#5C7ED6"/>
<path d="M27.2475 6.96214C26.7338 6.96214 26.2493 6.96214 25.7357 6.96214C25.7357 7.47577 25.7357 7.95063 25.7357 8.46426C25.222 8.46426 24.7472 8.46426 24.2141 8.46426C24.2141 7.9797 24.2141 7.49515 24.2141 6.95245C23.6618 6.95245 23.1772 6.95245 22.6636 6.95245C22.6636 6.42913 22.6636 5.94457 22.6636 5.41156C23.1675 5.41156 23.6618 5.41156 24.1851 5.41156C24.1851 4.86886 24.1851 4.394 24.1851 3.88037C24.6987 3.88037 25.1736 3.88037 25.7066 3.88037C25.7066 4.35523 25.7066 4.84948 25.7066 5.39218C26.2493 5.39218 26.7435 5.39218 27.2475 5.39218C27.2475 5.95427 27.2475 6.43882 27.2475 6.96214Z" fill="#5C7ED6"/>
</svg>
