<svg width="48" height="49" viewBox="0 0 48 49" fill="none" xmlns="http://www.w3.org/2000/svg">
<path d="M41.6903 24.0792C41.6903 22.626 41.6903 21.1988 41.6903 19.7716C41.6903 19.045 41.872 18.8633 42.5986 18.8374C42.7413 18.8374 42.897 18.8114 43.0397 18.8244C43.5458 18.8763 43.8701 18.7336 44.1556 18.2405C44.6227 17.4231 45.6477 17.1376 46.543 17.4231C47.4253 17.7085 48.0351 18.5649 48.0091 19.4991C47.9962 20.4073 47.3863 21.2247 46.504 21.4972C45.6088 21.7827 44.5967 21.4713 44.1296 20.6539C43.8572 20.1868 43.5717 20.083 43.0787 20.2387C43.0787 21.5102 43.0787 22.7947 43.0787 24.1182C44.3891 24.1182 45.6736 24.1182 46.9711 24.1182C47.8405 24.1182 48.0091 24.2998 48.0091 25.1821C48.0091 25.766 48.0091 26.3498 48.0091 26.9337C48.0091 28.3999 47.1398 29.3081 45.6866 29.36C43.5977 29.4379 41.9888 30.7224 41.4568 32.7335C41.0676 34.2516 41.4179 35.6269 42.4559 36.7947C43.5977 38.0921 43.5717 39.182 42.3521 40.4017C41.4179 41.3359 40.4707 42.283 39.5365 43.2172C38.4207 44.3331 37.2529 44.359 36.0722 43.2951C34.7877 42.1403 33.2956 41.79 31.6607 42.3349C29.987 42.8929 28.962 44.0606 28.6376 45.8122C28.5857 46.0847 28.5987 46.3572 28.5727 46.6296C28.4819 47.9142 27.5736 48.7835 26.2891 48.7965C24.81 48.8094 23.3438 48.7965 21.8647 48.7965C20.4374 48.7965 19.5292 47.9142 19.4773 46.4869C19.3735 43.8919 17.3494 41.9976 14.7804 42.1014C13.7294 42.1403 12.8082 42.5555 12.0167 43.2562C10.7841 44.372 9.6423 44.3461 8.48753 43.1783C7.52738 42.2182 6.56724 41.258 5.6071 40.2979C4.5172 39.208 4.49125 38.0273 5.52925 36.8725C6.69699 35.575 7.06029 34.0699 6.48939 32.4091C5.93147 30.7613 4.76373 29.7493 3.05104 29.4119C2.80451 29.36 2.53204 29.36 2.27254 29.347C0.923151 29.2822 0.040856 28.3739 0.027881 27.0375C0.027881 26.3369 0.027881 25.6492 0.027881 24.9486C0.027881 24.3647 0.274405 24.1311 0.858276 24.1311C2.05197 24.1311 3.25864 24.1311 4.45233 24.1311C4.60803 24.1311 4.76373 24.1311 4.95835 24.1311C4.95835 22.8207 4.95835 21.5361 4.95835 20.2516C4.53018 20.1478 4.20581 20.1089 3.93333 20.6149C3.46624 21.4583 2.45419 21.7956 1.53297 21.5102C0.624727 21.2247 0.00193119 20.3814 0.027881 19.4212C0.040856 18.4741 0.702577 17.6566 1.63677 17.4101C2.55799 17.1636 3.54408 17.5528 3.99821 18.4092C4.16688 18.7336 4.34853 18.8633 4.69885 18.8374C4.94538 18.8114 5.17892 18.8503 5.42545 18.8503C6.15204 18.8763 6.34667 19.0579 6.34667 19.7845C6.34667 21.082 6.34667 22.3795 6.34667 23.677C6.34667 23.8068 6.34667 23.9365 6.34667 24.1052C7.02136 24.1052 7.67011 24.1052 8.35778 24.1052C8.35778 21.3285 8.35778 18.5519 8.35778 15.7104C7.98151 15.7104 7.60523 15.6845 7.24194 15.7234C7.11219 15.7364 6.96946 15.905 6.89161 16.0348C6.34667 16.956 5.33462 17.3712 4.36151 17.0598C3.41434 16.7484 2.77856 15.8272 2.86939 14.867C2.96021 13.829 3.73871 13.0246 4.7767 12.9208C5.68495 12.83 6.39857 13.1933 6.83971 13.9977C6.99541 14.2832 7.17706 14.374 7.48846 14.361C7.94258 14.3351 8.3967 14.348 8.85083 14.361C9.5385 14.374 9.75907 14.5946 9.75907 15.2693C9.75907 18.0329 9.7461 20.8095 9.7461 23.5732C9.7461 23.7419 9.7461 23.9235 9.7461 24.1441C10.6543 24.1441 11.5237 24.1441 12.393 24.1441C13.0936 24.1441 13.3012 24.3517 13.3272 25.0783C13.5348 31.3322 18.7247 35.9772 24.9657 35.5101C29.8183 35.1468 34.0222 31.1506 34.619 26.3369C34.6709 25.9346 34.6969 25.5324 34.7228 25.1302C34.7488 24.3517 34.9434 24.1571 35.7089 24.1441C36.5653 24.1441 37.4216 24.1441 38.3169 24.1441C38.3169 23.9235 38.3169 23.7419 38.3169 23.5732C38.3169 20.8225 38.3039 18.0718 38.3039 15.3082C38.3039 14.5686 38.5115 14.361 39.2511 14.348C39.6663 14.348 40.0944 14.3221 40.5096 14.348C40.847 14.374 41.0546 14.2832 41.2362 13.9458C41.7033 13.1024 42.6764 12.7262 43.6106 12.9597C44.5059 13.1933 45.1806 14.0626 45.1936 14.9968C45.2066 15.918 44.5967 16.7614 43.7015 17.0468C42.7932 17.3452 41.7552 17.0079 41.2881 16.1775C41.0416 15.7364 40.7562 15.6455 40.328 15.6845C40.1204 15.6974 39.9128 15.6845 39.6792 15.6845C39.6792 18.5 39.6792 21.2637 39.6792 24.0663C40.341 24.0792 40.9897 24.0792 41.6903 24.0792ZM36.0982 25.5065C35.5662 32.2794 30.1037 36.7038 24.3948 36.8725C18.05 37.0671 12.3411 32.1496 11.9259 25.5065C8.42265 25.5065 4.91943 25.5065 1.42917 25.5065C1.4162 25.5713 1.39025 25.5973 1.39025 25.6232C1.39025 26.0644 1.37727 26.4926 1.39025 26.9337C1.39025 27.6603 1.68867 27.9587 2.41527 27.9847C4.8805 28.1144 6.65807 29.3081 7.60524 31.5787C8.5524 33.8493 8.13721 35.9513 6.50237 37.7937C5.9704 38.3906 5.98337 38.7539 6.55427 39.3377C7.52739 40.3109 8.5005 41.284 9.47362 42.2571C10.0705 42.841 10.4208 42.8539 11.0566 42.283C13.0807 40.4406 15.9351 40.1941 18.2187 41.7121C19.8665 42.802 20.7359 44.359 20.8267 46.3442C20.8656 47.0838 21.1381 47.4211 21.7738 47.4341C23.2789 47.4471 24.784 47.4471 26.2891 47.4341C26.847 47.4341 27.1584 47.1227 27.2103 46.5777C27.2363 46.2923 27.2233 45.9939 27.2752 45.7084C27.6774 43.3989 28.9879 41.8159 31.1936 41.0634C33.3734 40.3238 35.3326 40.7909 37.0453 42.3349C37.5903 42.828 37.9925 42.841 38.5115 42.322C39.4976 41.3359 40.4837 40.3498 41.4698 39.3637C42.0796 38.7539 42.0796 38.4035 41.4957 37.7548C39.5235 35.588 39.4327 32.3832 41.3011 30.1126C42.404 28.7761 43.8182 28.0755 45.5569 27.9977C46.2445 27.9717 46.6208 27.7382 46.6468 27.2062C46.6857 26.6483 46.6597 26.0774 46.6597 25.4935C43.1176 25.5065 39.6273 25.5065 36.0982 25.5065ZM2.93426 19.4602C2.93426 19.045 2.57097 18.6817 2.15577 18.6946C1.74057 18.6946 1.39025 19.0579 1.39025 19.4731C1.39025 19.9013 1.74057 20.2387 2.16874 20.2387C2.59692 20.2257 2.94724 19.8754 2.93426 19.4602ZM45.8423 20.2387C46.2575 20.2646 46.6338 19.9273 46.6468 19.4991C46.6727 19.0839 46.3224 18.7076 45.9072 18.6946C45.492 18.6687 45.1157 19.006 45.1028 19.4342C45.0768 19.8494 45.4142 20.2127 45.8423 20.2387ZM42.2742 14.9579C42.2353 15.399 42.5467 15.7493 42.9749 15.7883C43.416 15.8142 43.7663 15.5158 43.8182 15.0876C43.8572 14.6854 43.5328 14.2961 43.1046 14.2572C42.6894 14.2183 42.3131 14.5297 42.2742 14.9579ZM5.7628 14.9968C5.74982 14.5686 5.3995 14.2313 4.97133 14.2442C4.55613 14.2572 4.20581 14.6335 4.21878 15.0357C4.23176 15.4509 4.58208 15.7883 5.01025 15.7753C5.4514 15.7753 5.77577 15.4379 5.7628 14.9968Z" fill="#5C7ED6"/>
<path d="M24.0185 22.3406C18.0889 22.3406 13.2363 17.475 13.2493 11.5455C13.2623 5.62892 18.1019 0.802246 24.0185 0.802246C29.948 0.802246 34.8006 5.65487 34.7877 11.5844C34.7747 17.501 29.935 22.3406 24.0185 22.3406ZM24.0315 20.9782C29.2084 20.9653 33.4512 16.7095 33.4383 11.5325C33.4123 6.36849 29.1955 2.15164 24.0185 2.16461C18.8285 2.16461 14.5987 6.42039 14.6246 11.5974C14.6376 16.7614 18.8804 20.9912 24.0315 20.9782Z" fill="#5C7ED6"/>
<path d="M24.0314 24.1182C26.6653 24.1182 29.2992 24.1182 31.9461 24.1182C32.6857 24.1182 32.8933 24.3258 32.8803 25.0783C32.8024 29.4509 29.3122 33.2006 24.9137 33.6288C20.4763 34.057 16.3373 31.0987 15.3901 26.791C15.2733 26.259 15.2085 25.7011 15.1825 25.1562C15.1306 24.3128 15.3382 24.1182 16.1686 24.1182C18.7895 24.1182 21.4105 24.1182 24.0314 24.1182ZM31.479 25.5195C26.4837 25.5195 21.5272 25.5195 16.5708 25.5195C16.8303 29.2692 20.1519 32.2924 24.0055 32.3053C27.872 32.3183 31.1936 29.3081 31.479 25.5195Z" fill="#5C7ED6"/>
<path d="M21.1122 14.4907C20.217 14.4907 19.3866 14.4907 18.5432 14.4907C17.7906 14.4907 17.583 14.2831 17.5701 13.5565C17.5701 12.2331 17.5701 10.8967 17.5701 9.57324C17.5701 8.84664 17.7647 8.66499 18.5043 8.66499C19.3476 8.66499 20.178 8.66499 21.0992 8.66499C21.0992 7.9903 21.0992 7.32857 21.0992 6.67983C21.0992 5.10986 21.0992 5.10986 22.6562 5.10986C23.7721 5.10986 24.8879 5.10986 26.0038 5.10986C26.7044 5.10986 26.925 5.34341 26.925 6.04406C26.925 6.9004 26.925 7.75675 26.925 8.66499C27.8073 8.66499 28.6377 8.66499 29.4681 8.66499C30.2725 8.66499 30.4542 8.83367 30.4542 9.62514C30.4542 10.9356 30.4542 12.2461 30.4542 13.5565C30.4542 14.2831 30.2336 14.4907 29.494 14.4907C28.6507 14.4907 27.8203 14.4907 26.925 14.4907C26.925 15.386 26.925 16.2423 26.925 17.0857C26.925 17.7993 26.7174 18.0069 26.0038 18.0069C24.6673 18.0069 23.318 18.0069 21.9815 18.0069C21.3328 18.0069 21.1122 17.7864 21.1122 17.1376C21.0992 16.2813 21.1122 15.4249 21.1122 14.4907ZM22.4616 6.47223C22.4616 7.34155 22.4616 8.15897 22.4616 8.98936C22.4616 9.81976 22.267 10.0144 21.4366 10.0144C20.6192 10.0144 19.8018 10.0144 18.9584 10.0144C18.9584 11.0783 18.9584 12.0644 18.9584 13.1284C19.8277 13.1284 20.6581 13.1284 21.5015 13.1284C22.28 13.1284 22.4616 13.323 22.4746 14.1015C22.4746 14.9319 22.4746 15.7752 22.4746 16.6056C23.5385 16.6056 24.5506 16.6056 25.5886 16.6056C25.5886 15.7363 25.5886 14.9189 25.5886 14.0885C25.5886 13.31 25.7832 13.1154 26.5617 13.1154C27.4051 13.1154 28.2355 13.1154 29.0788 13.1154C29.0788 12.0514 29.0788 11.0394 29.0788 10.0014C28.3782 10.0014 27.7165 10.0014 27.0547 10.0014C25.6145 10.0014 25.5886 9.97546 25.5886 8.53524C25.5886 7.84757 25.5886 7.1599 25.5886 6.45925C24.5117 6.47223 23.5256 6.47223 22.4616 6.47223Z" fill="#5C7ED6"/>
</svg>
