<svg width="56" height="41" viewBox="0 0 56 41" fill="none" xmlns="http://www.w3.org/2000/svg">
<path d="M50.3174 35.3876C49.5225 39.3885 45.688 41.2487 42.3679 40.54C39.188 39.8609 35.9771 36.3325 37.8631 31.8444C37.6293 31.8444 37.4267 31.8444 37.224 31.8444C31.7996 31.8444 26.3752 31.8444 20.9352 31.8444C20.7014 31.8444 20.4676 31.8592 20.2338 31.8149C19.7506 31.7116 19.5168 31.3868 19.5324 30.9291C19.548 30.4862 19.7974 30.2057 20.2494 30.1024C20.452 30.0581 20.6703 30.0728 20.8885 30.0728C26.8429 30.0728 32.7972 30.0728 38.7516 30.0581C39.0322 30.0581 39.3595 29.9547 39.5777 29.7776C42.0405 27.8288 45.5165 27.7993 48.0105 29.7333C48.2599 29.9252 48.6184 30.0433 48.9301 30.0581C50.6136 30.0876 52.3126 30.0728 54.0896 30.0728C54.0896 29.8514 54.0896 29.6595 54.0896 29.4675C54.0896 27.9174 54.074 26.3672 54.1051 24.8318C54.1051 24.4037 53.9649 24.1084 53.6531 23.8279C52.7491 23.0012 51.845 22.1597 50.9721 21.2886C50.6603 20.9786 50.3954 20.58 50.2707 20.1814C49.3822 17.4797 48.5405 14.7632 47.6832 12.0468C47.5896 11.7368 47.4961 11.3824 47.3091 11.1315C47.1376 10.91 46.8103 10.659 46.5453 10.659C42.8667 10.6295 39.188 10.6443 35.4315 10.6443C35.4315 10.8805 35.4315 11.0872 35.4315 11.3086C35.4315 16.5348 35.4315 21.7758 35.4315 27.002C35.4315 27.2087 35.4471 27.4154 35.4159 27.6073C35.3224 28.0945 34.995 28.3455 34.4807 28.3307C33.9819 28.316 33.6857 28.065 33.5922 27.6073C33.561 27.4154 33.5766 27.2087 33.5766 27.002C33.5766 20.2109 33.5766 13.405 33.5766 6.61387C33.5766 5.58044 33.3272 5.34423 32.2361 5.34423C22.5563 5.34423 12.861 5.34423 3.18125 5.34423C2.09013 5.34423 1.82514 5.58044 1.82514 6.59911C1.82514 14.2318 1.82514 21.8496 1.82514 29.4823C1.82514 29.6595 1.82514 29.8514 1.82514 30.1171C2.246 30.1171 2.65127 30.1171 3.05655 30.1171C4.41265 30.1171 5.78433 30.1319 7.14043 30.1024C7.35866 30.1024 7.60806 30.0285 7.76393 29.9104C11.879 26.7511 17.4125 28.5965 18.5504 33.5274C18.5504 33.5422 18.566 33.557 18.5971 33.6456C18.7998 33.6456 19.018 33.6456 19.2518 33.6456C24.193 33.6456 29.1342 33.6456 34.0754 33.6456C34.2469 33.6456 34.4339 33.6308 34.6054 33.6456C35.1353 33.6898 35.4627 34.0294 35.4627 34.5314C35.4627 35.0185 35.1353 35.3581 34.6054 35.4024C34.4183 35.4172 34.2157 35.4172 34.0286 35.4172C29.1342 35.4172 24.2242 35.4172 19.3298 35.4172C19.0959 35.4172 18.8621 35.4172 18.5971 35.4172C18.2542 37.174 17.3657 38.606 15.8226 39.6247C14.6068 40.4367 13.2351 40.791 11.7543 40.7172C8.76152 40.5843 6.36107 38.5322 5.65964 35.4172C5.34789 35.4172 5.02055 35.4172 4.70881 35.4172C3.50858 35.4172 2.29277 35.4172 1.09254 35.4172C0.359933 35.4172 0.0325984 35.0924 0.00142364 34.3985C0.00142364 34.2951 0.00142364 34.177 0.00142364 34.0737C0.00142364 24.9204 0.00142364 15.7671 0.00142364 6.61387C-0.0453384 4.60606 1.06136 3.55786 3.10331 3.55786C12.8298 3.55786 22.5563 3.55786 32.2828 3.55786C34.3092 3.55786 35.4315 4.62082 35.4315 6.52529C35.4315 7.27822 35.4315 8.03115 35.4315 8.8579C36.0706 8.8579 36.6941 8.8579 37.302 8.8579C37.8943 8.8579 38.5022 8.8579 39.1725 8.8579C39.0789 7.70636 39.2192 6.6434 40.2324 5.89047C40.7935 5.4771 41.4326 5.28517 42.1341 5.32946C43.8019 5.41804 44.5969 6.46624 44.7995 8.8579C45.3295 8.8579 45.8594 8.87266 46.405 8.8579C47.6987 8.81361 48.6028 9.38938 49.0548 10.4819C49.5692 11.722 49.9433 13.0212 50.3642 14.3056C50.9253 16.0329 51.4553 17.7602 52.0164 19.4875C52.0944 19.7385 52.2658 19.9895 52.4529 20.1814C53.4349 21.141 54.4481 22.1006 55.4613 23.0307C55.8198 23.3555 55.9912 23.7098 55.9912 24.197C55.9756 27.5335 55.9912 30.87 55.9756 34.2066C55.9756 35.1071 55.6795 35.4024 54.7286 35.4024C53.279 35.3876 51.8138 35.3876 50.3174 35.3876ZM12.0972 38.9161C14.6847 38.9161 16.7578 36.9378 16.7578 34.4871C16.7578 32.0363 14.6691 30.0728 12.0816 30.0728C9.49413 30.0728 7.42101 32.0511 7.42101 34.5018C7.43659 36.9525 9.5253 38.9308 12.0972 38.9161ZM43.8643 30.0876C41.2768 30.0728 39.1725 32.0363 39.1725 34.4871C39.1569 36.9378 41.2456 38.9161 43.8175 38.9308C46.405 38.9456 48.4937 36.9821 48.5093 34.5314C48.5249 32.0659 46.4518 30.0876 43.8643 30.0876ZM6.12726 31.8887C4.67763 31.8887 3.25918 31.8887 1.87191 31.8887C1.87191 32.4792 1.87191 33.0403 1.87191 33.5865C3.15007 33.5865 4.39706 33.5865 5.59729 33.5865C5.76875 32.996 5.94021 32.4645 6.12726 31.8887ZM50.3486 33.5865C51.58 33.5865 52.8426 33.5865 54.074 33.5865C54.074 32.996 54.074 32.435 54.074 31.874C52.6399 31.874 51.2371 31.874 49.8186 31.874C49.9901 32.4497 50.1615 33.0107 50.3486 33.5865ZM42.8978 8.84314C42.8511 8.22308 43.1316 7.55873 42.399 7.23393C42.1341 7.11583 41.682 7.14535 41.4326 7.27822C40.8091 7.64731 41.0585 8.26737 41.0585 8.84314C41.682 8.84314 42.2588 8.84314 42.8978 8.84314Z" fill="white"/>
<path d="M20.4988 15.0439C21.4184 15.0439 22.2757 15.0439 23.133 15.0439C23.8968 15.0439 24.2241 15.3687 24.2397 16.0921C24.2397 17.1551 24.2397 18.2328 24.2397 19.2958C24.2397 20.0192 23.8968 20.344 23.133 20.344C22.2757 20.3587 21.434 20.344 20.5144 20.344C20.5144 21.1707 20.5144 21.9532 20.5144 22.7356C20.5144 23.5624 20.2026 23.8724 19.3297 23.8724C18.2542 23.8724 17.1942 23.8724 16.1187 23.8724C15.2302 23.8724 14.9185 23.5772 14.9185 22.7504C14.9185 21.9679 14.9185 21.1707 14.9185 20.3292C14.03 20.3292 13.2039 20.3292 12.3778 20.3292C11.5049 20.3292 11.1931 20.0192 11.1931 19.1924C11.1931 18.159 11.1931 17.1256 11.1931 16.0921C11.1931 15.3392 11.5205 15.0292 12.331 15.0292C13.1727 15.0292 13.9988 15.0292 14.9185 15.0292C14.9185 14.2319 14.9185 13.4347 14.9185 12.6523C14.9185 11.7812 15.2147 11.486 16.1343 11.486C17.1787 11.486 18.2386 11.486 19.283 11.486C20.2338 11.486 20.5144 11.7665 20.5144 12.6818C20.4988 13.4643 20.4988 14.2172 20.4988 15.0439ZM18.6283 22.1008C18.6283 21.2741 18.6283 20.4621 18.6283 19.6649C18.6283 18.9119 18.9712 18.6019 19.7662 18.6019C20.6079 18.6019 21.4652 18.6019 22.3225 18.6019C22.3225 17.9818 22.3225 17.4208 22.3225 16.8303C21.4652 16.8303 20.6546 16.8303 19.8441 16.8303C18.94 16.8303 18.6283 16.535 18.6283 15.664C18.6283 14.8815 18.6283 14.0991 18.6283 13.3166C17.9736 13.3166 17.3969 13.3166 16.7578 13.3166C16.7578 14.1286 16.7578 14.9111 16.7578 15.6935C16.7578 16.5203 16.4305 16.8155 15.5576 16.8155C14.7314 16.8155 13.9053 16.8155 13.0636 16.8155C13.0636 17.4356 13.0636 17.9966 13.0636 18.5871C13.9209 18.5871 14.7314 18.5871 15.542 18.5871C16.4461 18.5871 16.7578 18.8824 16.7578 19.7534C16.7578 20.5359 16.7578 21.3184 16.7578 22.1008C17.4281 22.1008 18.0048 22.1008 18.6283 22.1008Z" fill="white"/>
<path d="M42.7887 21.2296C41.3547 21.2296 39.9051 21.2296 38.4711 21.2296C37.6293 21.2296 37.302 20.9196 37.302 20.1224C37.302 17.8931 37.302 15.6638 37.302 13.4346C37.302 12.7111 37.6293 12.3864 38.3931 12.3864C40.5909 12.3864 42.7888 12.3864 44.9866 12.3864C45.5789 12.3864 45.9374 12.6226 46.0933 13.154C46.8103 15.4128 47.5273 17.6569 48.2287 19.9157C48.4937 20.7424 48.0729 21.2296 47.1532 21.2296C45.7036 21.2444 44.254 21.2296 42.7887 21.2296ZM46.0777 19.4433C46.0777 19.3694 46.0933 19.3104 46.0777 19.2513C45.5789 17.6569 45.0801 16.0477 44.5501 14.4532C44.5034 14.3204 44.2228 14.1727 44.0513 14.1727C42.6796 14.1432 41.2924 14.158 39.9207 14.158C39.6869 14.158 39.4375 14.158 39.2037 14.158C39.2037 15.9739 39.2037 17.6864 39.2037 19.4433C41.5106 19.4433 43.8019 19.4433 46.0777 19.4433Z" fill="white"/>
<path d="M41.0431 1.78637C41.0431 1.47634 41.0275 1.16631 41.0431 0.841513C41.0898 0.324794 41.4639 0 42.0095 0C42.5239 0.0147634 42.8668 0.324794 42.898 0.841513C42.9291 1.46158 42.9291 2.0964 42.898 2.71646C42.8668 3.24794 42.4927 3.55798 41.9471 3.54321C41.4327 3.52845 41.0898 3.21842 41.0586 2.7017C41.0275 2.4212 41.0431 2.0964 41.0431 1.78637Z" fill="white"/>
<path d="M39.157 23.016C39.4843 23.016 39.8116 23.0012 40.1546 23.016C40.6689 23.0455 41.0274 23.4146 41.0274 23.887C41.0274 24.3595 40.6845 24.7433 40.1701 24.7728C39.4843 24.8024 38.814 24.8024 38.1282 24.7728C37.5982 24.7433 37.2865 24.3742 37.3021 23.887C37.3177 23.3998 37.6294 23.0603 38.175 23.0308C38.5023 22.9865 38.8296 23.016 39.157 23.016Z" fill="white"/>
<path d="M38.0345 4.53223C37.9098 4.44365 37.6137 4.31078 37.4578 4.08933C37.0993 3.58737 36.7875 3.05589 36.4914 2.52441C36.2108 2.03722 36.3511 1.59432 36.8187 1.34335C37.2863 1.09237 37.8007 1.19571 38.0813 1.63861C38.4242 2.17009 38.7671 2.70157 39.0477 3.26258C39.3906 3.86788 38.923 4.53223 38.0345 4.53223Z" fill="white"/>
<path d="M47.7455 2.09635C47.1843 2.92309 46.7479 3.67603 46.2023 4.35514C45.9373 4.67993 45.4853 4.57659 45.1424 4.32561C44.7683 4.05987 44.628 3.70555 44.8306 3.30694C45.158 2.70164 45.5165 2.11111 45.9062 1.5501C46.1556 1.16625 46.592 1.07767 46.9817 1.29912C47.2778 1.46152 47.4649 1.78632 47.7455 2.09635Z" fill="white"/>
<path d="M14.8874 34.4871C14.8874 35.9487 13.6092 37.1593 12.0661 37.1445C10.5541 37.1298 9.2915 35.9339 9.2915 34.5019C9.2915 33.0403 10.5697 31.8297 12.1128 31.8445C13.6404 31.8593 14.8874 33.0551 14.8874 34.4871ZM13.0169 34.4871C13.0169 33.9999 12.6116 33.6161 12.0972 33.6161C11.5828 33.6161 11.1776 33.9852 11.162 34.4724C11.1464 34.9743 11.5828 35.3877 12.1128 35.3729C12.6272 35.3729 13.0325 34.9743 13.0169 34.4871Z" fill="white"/>
<path d="M43.8487 31.8445C45.3762 31.8445 46.6388 33.0255 46.6388 34.4724C46.6544 35.9339 45.3762 37.1593 43.8331 37.1445C42.2899 37.1445 41.0273 35.9192 41.0273 34.4576C41.0585 33.0403 42.3211 31.8445 43.8487 31.8445ZM43.8331 33.6161C43.3187 33.6161 42.9134 33.9999 42.9134 34.4871C42.9134 34.9891 43.3499 35.4024 43.8798 35.3729C44.3942 35.3582 44.7839 34.9595 44.7683 34.4724C44.7527 33.9852 44.3475 33.6161 43.8331 33.6161Z" fill="white"/>
</svg>
