<svg width="28" height="41" viewBox="0 0 28 41" fill="none" xmlns="http://www.w3.org/2000/svg">
<path d="M9.75717 6.23138C9.71057 5.76795 9.71057 5.2935 9.62902 4.83007C9.47757 3.98047 9.27953 3.13086 9.09313 2.28125C8.97664 1.71852 9.13973 1.46475 9.73387 1.32131C10.5726 1.1227 11.4231 0.913052 12.2618 0.714443C12.7744 0.59307 13.0773 0.758578 13.2288 1.23303C13.4268 1.86196 13.6016 2.50193 13.7996 3.13086C13.7996 3.14189 13.8229 3.14189 13.8928 3.2081C13.9045 3.02052 13.9278 2.86605 13.9278 2.71157C13.9278 2.06057 13.9278 1.42061 13.9278 0.769612C13.9394 0.25102 14.184 0.0193093 14.7316 0.0082754C15.5937 -0.00275847 16.4441 -0.00275847 17.3062 0.0082754C17.8421 0.0082754 18.11 0.262054 18.11 0.769612C18.1216 1.61922 18.1216 2.47986 18.11 3.32947C18.0983 3.93633 18.343 4.38872 18.8905 4.7087C19.8225 5.24936 20.5914 5.95553 21.1739 6.8272C21.3253 7.04788 21.4768 7.05892 21.7097 7.00375C22.2689 6.87134 22.8398 6.761 23.4106 6.65066C23.9698 6.54032 24.2727 6.73893 24.3892 7.25752C24.6105 8.29471 24.8319 9.33189 25.0532 10.3691C25.1464 10.8435 24.9367 11.1304 24.4358 11.2408C23.9814 11.3401 23.5154 11.4504 23.0728 11.5607C23.5387 11.8917 24.0047 12.1786 24.4008 12.5317C25.7988 13.8116 26.1716 15.7536 25.3794 17.4418C25.1581 17.9052 24.8901 18.3466 24.6804 18.81C24.6222 18.9314 24.6338 19.141 24.7154 19.2293C26.358 20.9947 27.0686 23.1022 27.453 25.3751C27.8258 27.615 27.9307 29.8659 27.8724 32.1279C27.7559 36.5635 23.9698 40.4364 19.3216 40.9108C16.8402 41.1646 14.5685 40.635 12.4832 39.333C10.5144 38.0972 8.51065 36.8835 6.5768 35.5925C2.02177 32.514 -0.226616 28.266 0.0180274 22.9587C0.216072 18.6003 2.26642 15.0474 5.87782 12.3331C6.19236 12.1014 6.23896 11.8697 6.22731 11.5387C6.12246 9.66291 5.45843 7.94162 4.7478 6.22034C4.57306 5.79002 4.39831 5.34867 4.22356 4.90731C4.07212 4.52113 4.20027 4.22321 4.57306 4.03564C5.48173 3.59428 6.39041 3.16396 7.29908 2.74467C7.76507 2.53503 8.13786 2.6895 8.3359 3.16396C8.67375 3.98047 8.98829 4.80801 9.31448 5.63555C9.39603 5.84519 9.50087 6.05483 9.60572 6.25344C9.65232 6.25344 9.71057 6.24241 9.75717 6.23138ZM6.58845 23.8745C6.54185 23.9297 6.49525 23.9959 6.44866 24.0511C7.07774 24.5917 7.70682 25.1434 8.3359 25.6841C9.08148 26.313 9.53582 27.0854 9.69892 28.0122C9.92026 29.1818 9.37273 30.1859 9.01159 31.2672C8.77859 31.201 8.5689 31.1348 8.37085 31.0686C8.16116 31.0024 7.93981 30.9362 7.69517 30.8479C7.84662 30.3955 7.98641 29.9983 8.12621 29.5901C8.58055 28.2991 8.3359 27.4164 7.24083 26.5227C6.00597 25.5186 4.99244 24.3379 4.16532 23.0139C4.10707 22.9256 4.03717 22.8484 3.95562 22.7491C2.9887 24.0511 2.32467 25.4303 1.95188 26.9419C1.90528 27.1185 1.90528 27.3281 1.96353 27.4936C2.8023 30.1307 4.32841 32.3596 6.67 33.9815C8.89509 35.5263 11.225 36.9276 13.5317 38.373C14.6384 39.0682 15.8733 39.4433 17.1897 39.5978C21.9311 40.1384 26.2764 36.6959 26.4628 32.1941C26.5677 29.6342 26.3929 27.0743 25.8687 24.5586C25.5192 22.8815 24.8202 21.3588 23.6086 20.0789C23.5038 19.9685 23.3058 19.8472 23.1893 19.8692C22.4903 20.0237 21.7913 20.2002 21.0923 20.3989C20.9875 20.432 20.8477 20.5754 20.836 20.6857C20.7661 21.1602 20.7312 21.6346 20.6846 22.1201C22.6417 22.9477 23.8882 24.2938 24.3659 26.313C23.8766 26.4013 23.4455 26.4785 23.0029 26.5558C22.6184 25.1103 21.7796 24.0952 20.405 23.4552C20.1836 24.1283 19.9856 24.7793 19.7526 25.4082C19.6711 25.6399 19.7176 25.7724 19.8807 25.9489C20.5448 26.633 20.9991 27.4274 21.1506 28.3432C21.3836 29.7776 22.0476 30.9472 23.2941 31.8079C23.3058 31.8189 23.3058 31.852 23.3174 31.8961C23.0844 32.2272 22.8398 32.5692 22.5835 32.9223C21.5466 32.2603 20.8244 31.3996 20.2535 30.2742C20.0788 31.0686 20.2768 31.6534 20.6496 32.2051C21.3603 33.2533 21.6515 34.4119 21.5583 35.6587C21.0923 35.6587 20.6496 35.6587 20.172 35.6587C20.2419 34.5994 19.9739 33.6616 19.3915 32.7678C18.4944 31.3776 18.5643 29.9763 19.5313 28.6191C19.6012 28.5198 19.706 28.3763 19.671 28.2991C19.508 27.8909 19.3099 27.4936 19.1468 27.1405C18.2381 28.4094 17.3761 29.6232 16.514 30.8479C16.4557 30.9362 16.4674 31.1017 16.5023 31.2231C16.6538 31.7086 16.8402 32.183 16.98 32.6796C17.2479 33.6505 17.3877 34.6436 17.3644 35.6477C16.8868 35.6477 16.4441 35.6477 15.9897 35.6477C15.9432 34.4339 15.7801 33.2643 15.3374 32.1058C14.7432 32.6023 14.2073 33.0657 13.6249 33.5512C13.3103 33.1871 13.0307 32.8561 12.7628 32.5251C15.3956 30.0866 16.6771 28.6522 16.8052 27.9791C16.1528 28.1998 15.6519 28.6081 15.2325 29.1156C14.5452 29.9321 13.6365 30.3404 12.5181 30.3845C12.5181 29.9211 12.5181 29.5018 12.5181 29.0825C13.3103 28.9722 13.7064 28.8067 14.0908 28.3432C14.9762 27.273 16.1062 26.633 17.5392 26.4454C17.6557 26.4344 17.8187 26.3351 17.8653 26.2468C18.5643 24.7903 19.042 23.2677 19.2167 21.6457C19.0303 21.7671 18.9022 21.9326 18.7624 22.076C18.5061 22.3408 18.2265 22.5615 17.8188 22.396C17.4343 22.2415 17.3877 21.9326 17.3644 21.5795C17.2712 19.7258 15.8034 18.1921 13.8695 17.8831C12.856 17.7287 11.8658 17.8611 10.8872 18.0817C8.4757 18.6003 6.54185 19.8582 4.89925 21.5574C4.98079 21.7119 5.05069 21.8333 5.10894 21.9546C5.26039 22.3188 5.50503 22.4512 5.95937 22.4732C6.75155 22.5063 7.55538 22.6277 8.32425 22.8042C9.73387 23.1242 11.027 23.709 12.2153 24.5697C11.9357 24.9227 11.6677 25.2648 11.3881 25.6179C9.94356 24.6469 8.34755 24.04 6.58845 23.8745ZM10.759 15.0143C12.9725 11.4504 16.0363 8.98984 20.137 7.46717C19.4847 6.91547 18.9721 6.35275 18.3313 5.96656C17.1897 5.27143 16.6421 4.35562 16.712 3.07569C16.747 2.50193 16.712 1.92817 16.712 1.35441C16.2227 1.35441 15.7917 1.35441 15.3141 1.35441C15.3141 1.71852 15.3024 2.04954 15.3141 2.39159C15.3723 4.0577 14.7083 5.3928 13.4035 6.51826C12.7628 7.06995 12.192 7.72095 11.7376 8.41608C10.4445 10.4242 10.13 12.5979 10.759 15.0143ZM18.6109 20.3878C18.7624 20.2775 18.8672 20.2113 18.9604 20.134C19.8225 19.461 20.8011 18.9976 21.8845 18.7327C22.3738 18.6224 22.9679 18.6003 23.3174 18.3245C23.6902 18.0155 23.83 17.4418 24.063 16.9894C24.0979 16.9122 24.1329 16.8349 24.1678 16.7577C24.6105 15.6102 24.4241 14.5619 23.5853 13.6351C22.4087 12.3221 20.2652 12.2007 18.7041 13.3593C17.7955 14.0323 17.0382 14.8488 16.4557 15.8088C16.2111 16.217 16.0014 16.6584 15.7568 17.0997C17.1897 17.85 18.1216 18.9093 18.6109 20.3878ZM11.4347 16.6253C12.4482 16.6253 13.3802 16.6363 14.3005 16.6142C14.4054 16.6142 14.5452 16.4929 14.5918 16.4046C14.8597 15.9301 15.0811 15.4336 15.3723 14.9812C16.2111 13.7013 17.2246 12.5648 18.6459 11.8586C19.6478 11.3621 20.7079 10.987 21.7563 10.5898C22.3272 10.3691 22.933 10.2256 23.562 10.0381C23.4222 9.37603 23.2825 8.72503 23.131 8.02989C17.8071 9.16638 13.9394 12.0021 11.4347 16.6253ZM5.72637 4.97351C6.6467 7.18029 7.54373 9.36499 7.64857 11.7593C7.75342 14.1647 7.11269 16.4267 6.26226 18.5783C7.31073 18.1038 8.34755 17.6183 9.39602 17.1659C9.82706 16.9784 9.93191 16.8129 9.75717 16.3715C8.77859 13.922 8.80189 11.4835 9.85036 9.05604C9.94356 8.8464 9.93191 8.71399 9.74552 8.55952C8.91839 7.87542 8.34755 7.02581 7.98641 6.0438C7.76507 5.44797 7.52043 4.86318 7.27578 4.24528C6.7399 4.48802 6.25061 4.71974 5.72637 4.97351ZM6.19236 13.9661C3.37314 15.6102 0.717009 21.4912 1.45094 24.2276C1.48589 24.1945 1.52084 24.1724 1.53249 24.1393C2.16157 22.8263 2.9887 21.6457 4.01387 20.5754C4.10707 20.4761 4.17697 20.3437 4.22356 20.2223C4.68955 18.8983 5.17884 17.5742 5.60988 16.2391C5.85452 15.4888 5.99432 14.7275 6.19236 13.9661ZM10.5726 2.47986C10.8056 4.0246 11.4347 5.47004 11.0037 7.01478C11.2134 6.81617 11.3881 6.61756 11.5629 6.41895C11.7493 6.20931 11.9124 5.95553 12.157 5.82312C12.9142 5.38177 12.9026 4.81904 12.6346 4.12391C12.39 3.49498 12.2385 2.82191 12.0405 2.13781C11.5279 2.25918 11.0619 2.36952 10.5726 2.47986Z" fill="white"/>
</svg>
