<svg width="44" height="42" viewBox="0 0 44 42" fill="none" xmlns="http://www.w3.org/2000/svg">
<path d="M0.963441 0C1.16989 0.173812 1.39928 0.347623 1.59426 0.532298C3.58996 2.53113 5.58566 4.52996 7.56989 6.5288C8.21218 7.16972 8.22365 7.30008 7.66165 8.03878C8.3957 8.73403 9.14122 9.42927 9.87527 10.1245C10.3914 10.6134 10.3799 10.9393 9.8638 11.439C9.62294 11.6671 9.37061 11.8952 9.10681 12.1451C9.2215 12.2646 9.32473 12.3732 9.42796 12.471C10.4143 13.4052 11.4122 14.3503 12.3986 15.2845C13.1097 15.9581 13.19 16.4686 12.7427 17.3268C12.605 17.5767 12.4674 17.8374 12.3527 18.0981C12.1004 18.663 12.1921 19.1953 12.628 19.6407C13.0638 20.097 13.6258 20.2165 14.2337 20.0101C14.876 19.7928 15.5068 19.5429 16.1491 19.3039C16.2753 19.2605 16.4129 19.217 16.5735 19.1519C16.757 19.5647 16.929 19.9666 17.124 20.4229C15.9541 20.7813 14.9333 21.4549 13.6832 21.4657C11.6989 21.4874 10.2308 19.5103 10.919 17.7396C11.0681 17.3703 11.2746 17.0335 11.4237 16.6642C11.4695 16.5555 11.4581 16.36 11.3778 16.284C10.2882 15.2302 9.1871 14.1874 8.02867 13.101C7.7534 13.3726 7.50107 13.6333 7.24874 13.8832C6.75555 14.3395 6.41147 14.3503 5.92975 13.8941C5.18423 13.1879 4.43871 12.471 3.70466 11.7649C2.94767 12.2754 2.79857 12.2646 2.12186 11.7214C1.5828 11.2869 1.04373 10.8741 0.516129 10.4287C0.321147 10.2657 0.172043 10.0811 0 9.89639C0.0229391 6.6157 0.0229391 3.30242 0.0229391 0C0.344086 0 0.653763 0 0.963441 0ZM6.2853 7.24577C4.72545 5.69233 3.14265 4.1063 1.49104 2.44422C1.49104 4.79068 1.49104 6.99591 1.49104 9.20115C1.49104 9.28805 1.51398 9.40755 1.57133 9.451C2.00717 9.82035 2.45448 10.168 2.85591 10.483C4.01434 9.38582 5.13835 8.33209 6.2853 7.24577ZM8.38423 10.8198C7.78781 10.2549 7.15699 9.66827 6.58351 9.1251C6.0215 9.66827 5.40215 10.244 4.85161 10.7763C5.43656 11.3303 6.04444 11.9061 6.64086 12.471C7.22581 11.917 7.83369 11.3412 8.38423 10.8198Z" fill="white"/>
<path d="M33.1357 31.5032C32.8948 31.3294 32.6654 31.1991 32.4934 31.0252C32.1952 30.7211 32.2066 30.3626 32.4934 30.0367C32.5622 29.9498 32.6539 29.8846 32.7342 29.8086C35.9916 26.7234 39.2489 23.6382 42.5063 20.5531C42.5866 20.477 42.6554 20.3575 42.7586 20.3358C43.0224 20.2706 43.3321 20.1403 43.55 20.2272C43.745 20.2924 43.9744 20.5965 43.9744 20.8029C44.0088 22.1934 44.0088 23.5948 43.9744 24.9853C43.9744 25.2025 43.7794 25.4633 43.5959 25.6371C41.0382 28.0813 38.469 30.5147 35.8884 32.948C35.3722 33.4369 35.0167 33.4369 34.5005 32.9372C34.3858 32.8177 34.2941 32.6765 34.2138 32.5895C33.2389 33.5129 32.3213 34.382 31.4038 35.2402C31.5987 35.5878 31.874 35.968 32.0346 36.3917C32.5737 37.8691 32.0805 39.1075 30.8991 40.1178C28.6281 42.0623 24.4876 42.1275 22.1134 40.2916C19.9342 38.5969 20.0145 35.968 22.3543 34.4689C24.6367 33.0132 27.0798 32.9372 29.5686 33.9909C30.3027 34.3059 30.0504 34.382 30.6582 33.8171C31.4611 33.0893 32.241 32.3506 33.1357 31.5032ZM26.3572 40.2481C27.6876 40.1938 28.9034 39.9222 29.9242 39.0858C30.9565 38.2384 31.0711 37.0869 30.188 36.1092C29.4425 35.2836 28.4332 34.9143 27.3321 34.7731C25.7149 34.5558 24.2009 34.8056 22.9048 35.8268C21.8038 36.6958 21.6891 37.8799 22.664 38.8794C23.6618 39.9005 24.9923 40.1829 26.3572 40.2481ZM42.5177 22.6171C39.7077 25.2786 36.9091 27.9292 34.1106 30.5798C34.4432 30.884 34.8102 31.2425 35.2002 31.5901C35.2231 31.5793 35.2575 31.5684 35.2919 31.5358C37.6547 29.3088 40.0059 27.071 42.3572 24.8332C42.426 24.7572 42.5063 24.6594 42.5177 24.5616C42.5177 23.9098 42.5177 23.258 42.5177 22.6171Z" fill="white"/>
<path d="M26.7354 31.8075C26.2422 31.8836 25.7949 31.9596 25.3132 32.0248C25.1182 30.9493 24.9347 29.9173 24.7512 28.8745C24.453 27.1907 24.1662 25.5069 23.868 23.8231C23.6845 22.8237 22.9505 22.1936 21.987 22.1936C21.0465 22.1936 20.3125 22.8128 20.1404 23.8013C19.4867 27.4405 18.8558 31.0906 18.2135 34.7406C18.0988 35.425 18.0071 36.1202 17.7892 36.772C17.3304 38.1191 15.8738 38.9881 14.463 38.8469C12.8458 38.6839 11.6644 37.6085 11.4465 36.0768C10.8386 31.8836 10.2422 27.6795 9.62286 23.4755C9.58845 23.2473 9.48523 23.0083 9.35906 22.8019C8.01713 20.7379 7.00781 18.5327 6.4458 16.0993C6.90458 16.0016 7.35189 15.9038 7.83361 15.7952C7.89096 15.969 7.95978 16.1211 7.99419 16.2731C8.49885 18.2611 9.33612 20.1296 10.4945 21.8568C10.9304 22.5086 11.0795 23.193 11.1827 23.9208C11.7562 27.9076 12.3297 31.8944 12.9031 35.8704C13.0408 36.8263 13.7634 37.4564 14.7039 37.4673C15.61 37.4781 16.3555 36.8806 16.5275 35.9355C17.2157 32.0465 17.9039 28.1684 18.5806 24.2793C18.7297 23.4103 18.8673 22.5304 19.544 21.8568C20.4386 20.9661 21.5282 20.6293 22.7784 20.9117C24.0057 21.1942 24.9003 21.9329 25.1755 23.117C25.5311 24.6378 25.7605 26.1804 26.0358 27.7121C26.2537 28.9396 26.4716 30.1672 26.6895 31.3947C26.701 31.5142 26.7125 31.6337 26.7354 31.8075Z" fill="white"/>
<path d="M33.8466 27.1579C33.3419 27.0927 32.8831 27.0275 32.4014 26.9624C32.5505 25.8761 32.734 24.8223 32.8487 23.7686C32.929 23.0082 33.2043 22.3455 33.6287 21.6937C35.3376 19.0757 36.2896 16.2295 36.5763 13.1661C36.7369 11.4497 36.6452 9.76592 35.8079 8.16903C34.0874 4.92093 29.8781 3.31318 26.2882 4.58417C25.0265 5.02956 23.7649 5.4315 22.3885 5.46409C21.1728 5.49668 20.0029 5.32287 18.8444 4.97525C17.8581 4.68194 16.8602 4.32345 15.8394 4.21482C13.4652 3.96497 11.4007 4.71453 9.66881 6.27883C9.56559 6.3766 9.46236 6.4635 9.34767 6.56127C8.98064 6.24624 8.63656 5.95293 8.26953 5.6379C9.84086 4.04101 11.7333 3.10677 13.9928 2.82433C15.5871 2.62879 17.1355 2.83519 18.615 3.41094C20.8516 4.28 23.0767 4.29086 25.3247 3.43267C27.6301 2.55275 29.9584 2.47671 32.2638 3.38922C35.7505 4.76884 37.7806 7.27824 38.0444 10.8522C38.3197 14.6435 37.2989 18.2066 35.4064 21.5416C35.2344 21.8349 35.0853 22.15 34.8674 22.4216C34.443 22.943 34.3512 23.5405 34.271 24.1705C34.1448 25.1591 33.9957 26.1368 33.8466 27.1579Z" fill="white"/>
</svg>
