<svg width="42" height="41" viewBox="0 0 42 41" fill="none" xmlns="http://www.w3.org/2000/svg">
<path d="M14.56 0C14.8235 0.0850066 15.0984 0.159387 15.3504 0.265646C16.3929 0.71193 17.0573 1.45574 17.2979 2.49707C17.3552 2.75209 17.4697 2.81584 17.7217 2.81584C18.4778 2.81584 19.2453 2.78396 19.9899 2.84772C21.1928 2.95398 22.0176 3.57028 22.4643 4.61161C22.5789 4.86663 22.7049 4.94101 22.9913 4.93038C24.366 4.91975 25.7406 4.91975 27.1038 4.93038C27.7339 4.93038 27.9974 5.16415 27.9974 5.74857C27.9974 9.35072 27.9974 12.9635 27.9974 16.5657C27.9974 16.64 27.9859 16.725 27.9744 16.8207C27.5048 16.8207 27.058 16.8207 26.554 16.8207C26.554 13.3142 26.554 9.81826 26.554 6.27986C25.248 6.27986 24.0108 6.27986 22.7736 6.29049C22.6934 6.29049 22.5674 6.40737 22.5331 6.49238C21.9717 7.76747 20.9637 8.38377 19.4744 8.38377C15.8316 8.37315 12.1887 8.37315 8.54584 8.38377C7.05662 8.38377 6.04853 7.7781 5.48721 6.503C5.45284 6.418 5.32683 6.30111 5.24664 6.30111C3.98653 6.27986 2.74933 6.27986 1.48922 6.27986C1.48922 16.1406 1.48922 25.9695 1.48922 35.8409C7.54921 35.8409 13.6092 35.8409 19.6921 35.8409C19.6921 36.3084 19.6921 36.7335 19.6921 37.2116C19.5317 37.2116 19.3828 37.2116 19.2224 37.2116C13.1624 37.2116 7.10244 37.2116 1.04245 37.2116C0.229111 37.2116 0 36.9991 0 36.2447C0 26.1289 0 16.0131 0 5.90796C0 5.12165 0.2062 4.93038 1.07682 4.93038C2.40567 4.93038 3.73451 4.91975 5.06335 4.93038C5.31537 4.93038 5.42993 4.86663 5.52157 4.63286C5.99125 3.48527 7.03371 2.82647 8.39692 2.80522C9.03843 2.79459 9.67994 2.81584 10.3214 2.79459C10.4475 2.79459 10.6422 2.66708 10.6651 2.56082C11.0088 1.21134 11.8909 0.38253 13.3343 0.0637549C13.3686 0.0531291 13.403 0.0212516 13.4374 0C13.8154 0 14.1934 0 14.56 0ZM13.9987 7.02367C15.843 7.02367 17.6874 7.02367 19.5317 7.02367C20.2076 7.02367 20.7345 6.81115 21.0553 6.24798C21.6052 5.28103 20.8491 4.18657 19.6234 4.16532C18.684 4.14407 17.7332 4.16532 16.7938 4.1547C16.118 4.1547 15.8659 3.88905 15.9118 3.27275C15.9919 2.25267 15.1328 1.37073 14.0445 1.34948C12.9219 1.32823 12.0283 2.18892 12.0856 3.23025C12.12 3.92093 11.9023 4.14407 11.1577 4.1547C10.2413 4.1547 9.32482 4.14407 8.41983 4.1547C7.65231 4.16532 7.07953 4.5266 6.86187 5.12165C6.51821 6.07797 7.23991 7.00242 8.38546 7.00242C10.2527 7.03429 12.1314 7.02367 13.9987 7.02367Z" fill="white"/>
<path d="M28.3068 20.9329C27.6767 21.9105 26.7946 22.2717 25.8209 21.9636C24.9847 21.698 24.4463 20.9754 24.4692 20.1678C24.4921 19.3709 25.0763 18.659 25.8897 18.4677C26.7717 18.2446 27.6767 18.5527 28.1235 19.254C28.261 19.4665 28.4099 19.5622 28.6734 19.6047C29.9907 19.8278 30.9301 20.8585 30.9416 22.1017C30.9645 23.855 30.9759 25.5976 30.9301 27.3509C30.827 31.2505 27.4934 34.5127 23.3007 34.8633C23.1403 34.8739 22.9914 34.8952 22.8081 34.9058C22.8081 35.9153 22.7508 36.9035 22.831 37.8917C22.8998 38.7099 23.736 39.358 24.641 39.358C27.9402 39.3687 31.2394 39.3793 34.55 39.358C35.5925 39.358 36.4058 38.5717 36.4173 37.5835C36.4402 34.8102 36.4173 32.0475 36.4288 29.2741C36.4288 29.0191 36.2798 28.9872 36.0736 28.9341C34.298 28.4666 33.1296 27.4146 32.763 25.7358C32.3849 24.0569 32.9806 22.6436 34.4355 21.5811C35.8445 20.5397 37.8378 20.4441 39.3957 21.2729C41.011 22.1442 41.8472 23.7487 41.6067 25.5126C41.389 27.1065 40.0716 28.4878 38.3075 28.9129C37.9753 28.9979 37.8951 29.1148 37.8951 29.4123C37.9065 32.0369 37.9065 34.6614 37.9065 37.286C37.9065 39.4218 36.4975 40.7288 34.1949 40.7288C31.1477 40.7288 28.1006 40.6863 25.0649 40.7394C22.957 40.7819 21.2387 39.3155 21.3533 37.2754C21.3991 36.4572 21.3647 35.639 21.3647 34.8527C20.6774 34.6296 20.013 34.4808 19.4058 34.2151C16.2326 32.7913 14.6174 30.3686 14.457 27.1384C14.3768 25.502 14.4341 23.855 14.4456 22.208C14.457 20.8691 15.3735 19.8597 16.771 19.5834C16.92 19.5515 17.0803 19.4347 17.1605 19.3071C17.5844 18.6165 18.3061 18.2977 19.2683 18.3933C20.0244 18.4677 20.6545 18.9565 20.8492 19.6153C21.1012 20.4335 20.8492 21.2517 20.2192 21.7086C19.2225 22.4418 17.7448 22.1017 17.0345 20.9541C16.4045 21.0285 15.9119 21.4323 15.9119 22.0486C15.9233 24.1419 15.7973 26.2564 16.0837 28.3178C16.519 31.3568 19.612 33.6307 22.8081 33.5457C26.1417 33.4607 29.0285 31.0699 29.3951 27.9565C29.544 26.7133 29.4752 25.4382 29.4982 24.1844C29.5096 23.5043 29.5096 22.8349 29.4982 22.1549C29.4638 21.4854 29.0285 21.0392 28.3068 20.9329ZM37.1505 27.7015C38.823 27.6909 40.1747 26.4371 40.1747 24.8963C40.1747 23.3449 38.7886 22.0592 37.1161 22.0699C35.4321 22.0805 34.0804 23.3449 34.1033 24.9176C34.1147 26.4689 35.4779 27.7015 37.1505 27.7015ZM19.4402 20.2422C19.4631 19.9022 19.3142 19.7216 18.9247 19.7216C18.5466 19.7216 18.3863 19.8597 18.3863 20.221C18.3863 20.5397 18.5123 20.7097 18.8789 20.7097C19.234 20.7097 19.4631 20.6141 19.4402 20.2422ZM26.4395 20.6991C26.7717 20.6885 26.9436 20.5185 26.9665 20.2316C26.9894 19.9766 26.703 19.7109 26.4281 19.7322C26.1188 19.7641 25.9355 19.9341 25.9355 20.221C25.9469 20.5185 26.1302 20.6779 26.4395 20.6991Z" fill="white"/>
<path d="M20.4254 14.6637C20.139 14.6637 19.9213 14.6744 19.6922 14.6637C19.2455 14.6319 18.9705 14.3981 18.9591 13.9837C18.9362 13.2824 18.9362 12.5811 18.9591 11.8798C18.9705 11.4547 19.234 11.221 19.6808 11.1891C19.9099 11.1785 20.1275 11.1891 20.4254 11.1891C20.4254 10.9553 20.4139 10.7534 20.4254 10.5622C20.4598 10.084 20.7232 9.85025 21.2616 9.85025C21.9719 9.83963 22.6936 9.83963 23.4038 9.85025C23.9766 9.85025 24.2401 10.0946 24.2515 10.6259C24.2515 10.7959 24.2515 10.966 24.2515 11.1785C24.4921 11.1785 24.6869 11.1679 24.8816 11.1785C25.4658 11.1997 25.7064 11.4335 25.7179 11.9648C25.7293 12.6023 25.7179 13.2399 25.7179 13.8774C25.7179 14.4193 25.4658 14.6531 24.8816 14.6637C24.6869 14.6744 24.4921 14.6637 24.2515 14.6637C24.2515 14.8869 24.2515 15.0675 24.2515 15.2482C24.2286 15.7369 23.9766 15.9813 23.4497 15.992C22.7394 16.0026 22.0177 16.0026 21.3075 15.992C20.6774 15.992 20.4368 15.7582 20.4254 15.1631C20.4254 15.0356 20.4254 14.8869 20.4254 14.6637ZM22.7509 11.2316C22.453 11.2316 22.1895 11.2316 22.0063 11.2316C21.8802 11.6354 21.8802 12.1029 21.6282 12.3154C21.3647 12.5492 20.8607 12.5386 20.4368 12.6448C20.4368 12.8255 20.4368 13.0486 20.4368 13.3355C21.5251 13.1761 22.0979 13.548 21.8802 14.6319C22.2239 14.6319 22.4988 14.6319 22.6821 14.6319C22.8081 14.2281 22.8081 13.7605 23.0602 13.548C23.3236 13.3249 23.8277 13.3355 24.2401 13.2399C24.2401 13.038 24.2401 12.8042 24.2401 12.5811C22.9342 12.4642 22.9342 12.4642 22.7509 11.2316Z" fill="white"/>
<path d="M5.64759 21.7297C5.05191 21.7297 4.44476 21.7403 3.84907 21.7297C3.32212 21.7191 3.05864 21.4853 3.05864 20.9965C3.04718 19.8702 3.04718 18.7438 3.05864 17.6175C3.05864 17.1287 3.33357 16.8737 3.84907 16.8737C5.06336 16.8631 6.27765 16.8631 7.49194 16.8737C8.00744 16.8737 8.29383 17.1393 8.29383 17.6175C8.30528 18.7438 8.30528 19.8702 8.29383 20.9965C8.29383 21.4747 8.00744 21.7191 7.49194 21.7297C6.87334 21.7403 6.25474 21.7297 5.64759 21.7297ZM4.53641 18.2444C4.53641 18.9563 4.53641 19.647 4.53641 20.3483C5.31538 20.3483 6.05999 20.3483 6.80461 20.3483C6.80461 19.6258 6.80461 18.9351 6.80461 18.2444C6.02563 18.2444 5.29247 18.2444 4.53641 18.2444Z" fill="white"/>
<path d="M5.65903 28.0734C5.0748 28.0734 4.49056 28.0734 3.90633 28.0734C3.3221 28.0734 3.04717 27.8397 3.04717 27.3084C3.03571 26.1927 3.03571 25.077 3.04717 23.9719C3.04717 23.4512 3.31064 23.2174 3.86051 23.2174C5.06334 23.2068 6.26617 23.2068 7.45755 23.2174C8.00742 23.2174 8.28235 23.4725 8.28235 23.9719C8.29381 25.0876 8.29381 26.2033 8.28235 27.3084C8.28235 27.8078 7.99596 28.0628 7.45755 28.0734C6.86186 28.0734 6.26618 28.0734 5.65903 28.0734ZM6.81604 24.5882C6.04852 24.5882 5.30391 24.5882 4.53639 24.5882C4.53639 25.3001 4.53639 25.9908 4.53639 26.6921C5.31536 26.6921 6.05997 26.6921 6.81604 26.6921C6.81604 25.9801 6.81604 25.2895 6.81604 24.5882Z" fill="white"/>
<path d="M3.0471 12.9742C3.0471 12.4323 3.03564 11.8904 3.0471 11.3485C3.05856 10.7959 3.29912 10.5622 3.8719 10.5622C5.07473 10.5515 6.27756 10.5515 7.46894 10.5622C8.01881 10.5622 8.28229 10.8172 8.28229 11.3272C8.29374 12.4217 8.29374 13.5268 8.28229 14.6319C8.28229 15.1631 8.00735 15.4288 7.44603 15.4288C6.26611 15.4394 5.07473 15.4394 3.88336 15.4288C3.31058 15.4288 3.0471 15.1844 3.03564 14.6531C3.03564 14.0793 3.0471 13.5268 3.0471 12.9742ZM6.81598 14.0474C6.81598 13.3143 6.81598 12.6342 6.81598 11.9223C6.04845 11.9223 5.30384 11.9223 4.53632 11.9223C4.53632 12.6448 4.53632 13.3355 4.53632 14.0474C5.30384 14.0474 6.037 14.0474 6.81598 14.0474Z" fill="white"/>
<path d="M8.29381 31.9837C8.29381 32.5256 8.30526 33.0675 8.29381 33.6094C8.28235 34.1194 8.03033 34.3745 7.48046 34.3851C6.26618 34.3957 5.05189 34.3957 3.8376 34.3851C3.31064 34.3745 3.05862 34.1301 3.04717 33.6413C3.03571 32.5149 3.03571 31.3886 3.04717 30.2623C3.04717 29.7841 3.3221 29.5291 3.84905 29.5185C5.06334 29.5078 6.27763 29.5078 7.49192 29.5185C8.00742 29.5291 8.28235 29.7947 8.29381 30.2729C8.30526 30.8467 8.29381 31.4205 8.29381 31.9837ZM4.53639 30.8998C4.53639 31.6118 4.53639 32.3024 4.53639 33.0037C5.31536 33.0037 6.05997 33.0037 6.80459 33.0037C6.80459 32.2812 6.80459 31.5905 6.80459 30.8998C6.02561 30.8998 5.29245 30.8998 4.53639 30.8998Z" fill="white"/>
<path d="M9.86328 12.5702C9.86328 12.1239 9.86328 11.7095 9.86328 11.2632C12.6355 11.2632 15.3734 11.2632 18.1456 11.2632C18.1456 11.6988 18.1456 12.1132 18.1456 12.5702C15.3849 12.5702 12.647 12.5702 9.86328 12.5702Z" fill="white"/>
<path d="M9.85205 18.9033C9.85205 18.457 9.85205 18.0426 9.85205 17.6069C11.8568 17.6069 13.85 17.6069 15.8662 17.6069C15.8662 18.0426 15.8662 18.457 15.8662 18.9033C13.8729 18.9033 11.8911 18.9033 9.85205 18.9033Z" fill="white"/>
<path d="M9.87451 13.3672C11.6272 13.3672 13.3455 13.3672 15.1097 13.3672C15.1097 13.8028 15.1097 14.2279 15.1097 14.6848C13.3799 14.6848 11.6387 14.6848 9.87451 14.6848C9.87451 14.2704 9.87451 13.8347 9.87451 13.3672Z" fill="white"/>
<path d="M9.85205 33.6733C9.85205 33.227 9.85205 32.8232 9.85205 32.377C11.6047 32.377 13.346 32.377 15.1216 32.377C15.1216 32.8126 15.1216 33.227 15.1216 33.6733C13.3689 33.6733 11.6277 33.6733 9.85205 33.6733Z" fill="white"/>
<path d="M13.5866 21.0179C12.3494 21.0179 11.1122 21.0179 9.85205 21.0179C9.85205 20.5823 9.85205 20.1572 9.85205 19.7109C11.0893 19.7109 12.315 19.7109 13.5866 19.7109C13.5866 20.1466 13.5866 20.5716 13.5866 21.0179Z" fill="white"/>
<path d="M13.5976 27.3509C12.3489 27.3509 11.1346 27.3509 9.87451 27.3509C9.87451 26.9259 9.87451 26.4902 9.87451 26.0439C11.1003 26.0439 12.3375 26.0439 13.5976 26.0439C13.5976 26.4584 13.5976 26.8834 13.5976 27.3509Z" fill="white"/>
<path d="M13.5976 31.5589C12.3604 31.5589 11.1346 31.5589 9.87451 31.5589C9.87451 31.1339 9.87451 30.7089 9.87451 30.252C11.1003 30.252 12.3375 30.252 13.5976 30.252C13.5976 30.6876 13.5976 31.1126 13.5976 31.5589Z" fill="white"/>
<path d="M9.86328 23.9187C10.8714 23.9187 11.8451 23.9187 12.8303 23.9187C12.8303 24.3544 12.8303 24.7688 12.8303 25.2257C11.8451 25.2257 10.8599 25.2257 9.86328 25.2257C9.86328 24.79 9.86328 24.3756 9.86328 23.9187Z" fill="white"/>
<path d="M39.4302 24.9068C39.4187 26.065 38.3877 27.0213 37.1276 27.0213C35.8675 27.0213 34.8136 26.0331 34.825 24.8643C34.848 23.6955 35.879 22.7498 37.1276 22.7498C38.4106 22.7498 39.4416 23.7167 39.4302 24.9068ZM37.9753 24.8855C37.9753 24.4605 37.5858 24.0992 37.1276 24.1099C36.6694 24.1205 36.2914 24.4818 36.3028 24.9068C36.3143 25.3212 36.6808 25.6612 37.1276 25.6719C37.5744 25.6719 37.9753 25.3106 37.9753 24.8855Z" fill="white"/>
</svg>
