<svg width="52" height="41" viewBox="0 0 52 41" fill="none" xmlns="http://www.w3.org/2000/svg">
<path d="M0 12.4912C0.134062 11.8436 0.227905 11.1833 0.388779 10.5357C1.85005 4.50444 7.57449 0.0984056 14.1033 0.0476156C16.6371 0.0222206 19.211 -0.0920568 21.718 0.161893C28.4747 0.847558 33.3143 4.22509 36.2101 10.0405C37.1217 11.869 37.6445 13.7863 37.3898 15.8306C37.43 15.8687 37.4568 15.9068 37.4837 15.9068C38.3148 15.8052 38.7841 16.2369 39.1326 16.8718C39.2667 17.1257 39.4812 17.3416 39.6152 17.5956C39.7761 17.9003 39.9906 17.9511 40.3392 17.9257C40.6877 17.9003 40.728 17.6844 40.8218 17.4813C41.2642 16.4274 41.6932 15.3608 42.1356 14.3069C42.2428 14.0403 42.2428 13.8752 42.0284 13.6339C41.1569 12.707 41.2374 11.3484 42.1758 10.5104C43.0874 9.68501 44.5085 9.67232 45.4469 10.4723C46.3988 11.2849 46.4926 12.6308 45.6614 13.5958C45.4603 13.8244 45.4737 13.9895 45.581 14.2307C45.7955 14.6751 45.9832 15.1322 46.1977 15.5767C46.2647 15.7163 46.4256 15.8179 46.5328 15.9322C46.6401 15.8306 46.7741 15.7417 46.8412 15.6147C47.3908 14.6751 48.4633 14.2053 49.509 14.4339C50.5681 14.6751 51.3322 15.5259 51.3725 16.529C51.4261 17.5702 50.7021 18.5479 49.6565 18.8272C48.5706 19.132 47.4042 18.6875 46.8814 17.7225C46.7071 17.4051 46.5194 17.3035 46.1843 17.3416C45.581 17.4178 45.219 17.1638 45.0179 16.6178C44.7632 15.9449 44.4415 15.31 44.1331 14.6497C44.0795 14.5482 43.9454 14.3958 43.8784 14.4212C43.7577 14.4466 43.6237 14.5609 43.5835 14.6751C43.0874 15.8306 42.6048 16.9988 42.149 18.1669C42.0954 18.2939 42.216 18.5352 42.3233 18.6748C43.5164 20.0208 42.7791 22.0524 40.9693 22.3952C39.9906 22.573 39.1728 22.2682 38.583 21.5191C37.9931 20.7699 37.9261 19.9319 38.3953 19.1066C38.5562 18.8272 38.5696 18.6367 38.3685 18.3955C38.1406 18.1288 37.9663 17.8114 37.7518 17.5321C37.5239 17.24 37.1351 17.2908 36.9742 17.5956C36.4112 18.6748 35.8615 19.7541 35.2582 20.808C35.0437 21.1889 35.0437 21.4429 35.285 21.7984C36.009 22.8396 36.7061 23.9062 37.4032 24.9728C38.2478 26.2552 37.8724 27.5885 36.4782 28.3122C35.7409 28.6932 35.0035 29.0614 34.2662 29.4169C33.9444 29.5693 33.7701 29.7851 33.6763 30.128C33.368 31.3088 33.0328 32.4897 32.7111 33.6706C32.1882 35.626 30.6867 36.5148 28.6088 36.1212C28.2334 36.045 27.8446 35.9942 27.4827 35.9053C27.0268 35.7911 26.7989 35.4355 26.9062 35.0419C27 34.6737 27.3486 34.4705 27.791 34.534C28.2468 34.5975 28.716 34.6991 29.1718 34.7626C30.1773 34.9149 30.9414 34.4578 31.1962 33.5055C31.5313 32.2866 31.8933 31.0676 32.1882 29.8359C32.3893 29.036 32.8451 28.4773 33.6227 28.1345C34.3198 27.8297 34.9901 27.4615 35.6604 27.1187C36.3844 26.7504 36.505 26.3568 36.076 25.6966C35.3655 24.6173 34.6684 23.538 33.931 22.4841C33.3948 21.7095 33.3814 20.9604 33.9176 20.1858C34.6684 19.0812 35.3789 17.9511 35.7006 16.6432C36.1162 14.9164 35.9151 13.2403 35.2314 11.615C32.7781 5.7107 28.2334 2.26968 21.5839 1.58401C18.4335 1.26658 15.2294 1.22848 12.079 1.67289C6.93099 2.39665 2.56058 6.59952 1.70258 11.4627C1.05909 15.1322 1.98411 18.4336 4.41063 21.354C5.2016 22.2936 5.99256 23.2332 6.78352 24.1729C7.68174 25.2267 7.94986 26.4076 7.65492 27.7409C6.7299 31.804 5.81828 35.8799 4.90666 39.9431C4.75919 40.6288 4.19613 40.9208 3.6867 40.578C3.32473 40.3368 3.33814 39.9812 3.41857 39.6384C3.79395 37.9877 4.16932 36.3244 4.54469 34.6737C5.09435 32.2612 5.63059 29.8486 6.18025 27.4361C6.38134 26.5473 6.19365 25.7473 5.57697 25.0363C4.69216 24.0078 3.80735 22.9666 2.96276 21.9127C1.34062 19.8938 0.375373 17.6209 0.0938432 15.0814C0.080437 14.9799 0.0402185 14.8656 0 14.764C0 14.0149 0 13.253 0 12.4912ZM41.4251 20.1604C41.4117 19.7033 41.0095 19.3224 40.5135 19.3351C40.0174 19.3351 39.6286 19.716 39.6421 20.1858C39.6421 20.6556 40.0576 21.0366 40.5403 21.0239C41.0095 21.0112 41.4251 20.6049 41.4251 20.1604ZM48.9996 15.8052C48.5035 15.7925 48.0879 16.1734 48.0879 16.6305C48.0745 17.0877 48.4901 17.4813 48.9727 17.494C49.4554 17.5067 49.871 17.113 49.8844 16.6559C49.8844 16.1988 49.4822 15.8179 48.9996 15.8052ZM43.8114 11.2976C43.3153 11.2976 42.9266 11.6785 42.94 12.1483C42.94 12.6308 43.3287 12.9864 43.8248 12.9737C44.3208 12.9737 44.723 12.5927 44.7096 12.1356C44.7096 11.6785 44.294 11.2976 43.8114 11.2976Z" fill="white"/>
<path d="M21.9995 17.2653C21.9995 18.3573 21.9593 19.4239 22.0129 20.4778C22.1202 22.8522 20.6589 24.4521 18.7418 25.0997C18.1117 25.3155 17.5085 25.5695 16.8918 25.8234C15.5646 26.3694 14.854 27.3217 14.854 28.7058C14.854 29.3914 14.854 30.0644 14.854 30.75C14.854 31.296 14.5457 31.6262 14.0765 31.6135C13.6207 31.6008 13.3525 31.296 13.3525 30.7627C13.3525 30.0517 13.3391 29.3406 13.3525 28.6296C13.4062 26.7376 14.3446 25.3917 16.1544 24.5918C16.9186 24.2489 17.723 23.9696 18.5139 23.6522C19.8277 23.1062 20.498 22.1539 20.498 20.7952C20.498 19.8683 20.498 18.9287 20.4176 17.9891C20.3506 18.1795 20.2835 18.3573 20.2165 18.5351C19.3853 20.5667 17.6827 21.4809 15.5109 21.7221C14.9881 21.7856 14.7468 21.9126 14.6127 22.4205C14.4116 23.2077 13.9156 23.8553 13.2587 24.3759C12.2532 25.1759 11.8242 26.2044 11.8779 27.436C11.9181 28.528 11.8913 29.62 11.8779 30.712C11.8779 31.3087 11.5963 31.6262 11.1137 31.6135C10.6445 31.6008 10.3898 31.2833 10.3764 30.712C10.3764 29.493 10.363 28.274 10.3764 27.0551C10.3898 25.633 10.9394 24.4394 12.0655 23.4871C12.6152 23.0173 13.0978 22.4967 13.2453 21.7348C12.1058 21.646 11.0601 21.2396 9.88034 21.2523C7.89623 21.2523 6.47517 20.173 5.36246 18.7128C5.10774 18.37 5.17477 17.9764 5.49652 17.7351C5.83168 17.4812 6.24727 17.5447 6.56902 17.8748C6.9712 18.2938 7.35998 18.7382 7.81579 19.0938C8.4861 19.6271 9.27706 19.9064 10.2557 19.8429C10.2557 19.2588 10.2423 18.6747 10.2557 18.0907C10.2959 16.2241 11.5829 14.7385 13.4866 14.4592C14.2508 14.3449 15.0551 14.3957 15.8327 14.4084C16.2617 14.4211 16.4896 14.7004 16.5164 15.0941C16.5432 15.4623 16.2215 15.7797 15.7925 15.8051C15.2964 15.8305 14.787 15.8051 14.291 15.8178C12.7224 15.8305 11.7706 16.7447 11.7572 18.2303C11.7572 18.7255 11.7438 19.208 11.7706 19.7032C11.784 19.8302 11.9315 20.0207 12.0521 20.0588C13.5268 20.4397 15.0149 20.5286 16.503 20.0588C18.0849 19.5636 18.9697 18.4335 19.0636 16.8336C19.1172 16.021 19.3049 15.8305 20.1629 15.8305C22.4687 15.8305 24.7746 15.8432 27.0805 15.8305C28.4747 15.8178 29.574 15.2845 30.2443 14.091C30.6063 13.4561 30.5929 12.8466 30.3113 12.3514C29.7081 12.745 29.145 13.2656 28.4747 13.5196C27.7642 13.7862 26.9598 13.837 26.1822 13.9005C25.646 13.9513 25.3243 13.5958 25.3511 13.164C25.3645 12.745 25.6728 12.4784 26.2091 12.5038C27.5497 12.5673 28.5954 12.1102 29.3193 11.0309C29.4131 10.8912 29.4936 10.7261 29.4936 10.5611C29.5606 8.58025 27.724 6.75182 25.6326 6.67563C25.3913 6.66293 25.0695 6.54866 24.9489 6.37089C24.1177 5.19003 22.8307 4.8345 21.4767 4.61864C20.6857 4.49167 19.8813 4.49167 19.077 4.75831C19.077 5.39319 19.0368 6.02806 19.0904 6.66293C19.1574 7.46287 19.8545 8.00887 20.7393 8.03426C21.3426 8.04696 21.9459 8.03426 22.5492 8.04696C23.0184 8.05966 23.3267 8.339 23.3401 8.74532C23.3401 9.11355 23.0452 9.45638 22.6162 9.45638C21.7984 9.46908 20.9672 9.49447 20.1629 9.39289C18.6748 9.18973 17.6157 7.98347 17.5621 6.54866C17.5487 6.04076 17.5353 5.53286 17.5621 5.02496C17.5755 4.73292 17.4414 4.60594 17.1733 4.51706C16.0472 4.16153 14.9345 4.25041 13.8083 4.51706C12.7895 4.75831 11.8645 5.16463 11.0065 5.8376C11.1807 5.91378 11.3014 5.97727 11.4355 6.02806C13.004 6.68833 13.8486 7.8438 13.929 9.45638C13.9826 10.5992 14.3312 10.9293 15.5512 10.9293C15.8193 10.9293 16.0874 10.9293 16.3421 10.9801C16.7175 11.069 16.8918 11.3356 16.865 11.6911C16.8381 12.0594 16.6236 12.3133 16.2483 12.326C15.6718 12.3514 15.0685 12.3768 14.5055 12.2625C13.2319 12.0086 12.4543 10.9928 12.4409 9.68493C12.4275 8.44058 11.7706 7.55176 10.6177 7.24702C10.0948 7.10735 9.572 7.12004 9.06256 7.3613C7.72195 8.00887 6.72989 8.94848 6.28749 10.3325C5.95233 11.361 6.20705 11.8943 7.1857 12.4149C8.19116 12.9355 9.23684 13.0498 10.3227 12.7196C10.9126 12.5419 11.3148 12.6815 11.4757 13.1259C11.6231 13.5577 11.3818 13.9005 10.7786 14.091C9.11619 14.5862 7.54767 14.3703 6.08639 13.4561C5.96574 13.3799 5.83168 13.291 5.71102 13.2148C5.69761 13.2021 5.68421 13.2148 5.63058 13.2021C5.34905 13.7608 5.30884 14.3449 5.37587 14.9417C5.4429 15.4877 5.16137 15.8432 4.67875 15.8559C4.24975 15.8686 3.96822 15.6654 3.90119 15.2591C3.74031 14.1291 3.86097 13.0498 4.5715 12.0848C4.65193 11.9832 4.71896 11.8181 4.69215 11.7038C4.45084 9.43098 5.63058 7.8311 7.46723 6.62484C8.39225 6.01536 9.26366 5.38049 10.1351 4.70752C12.3605 2.99336 14.9345 2.39658 17.7364 3.22192C18.1788 3.34889 18.5541 3.38698 19.0099 3.3108C21.5571 2.89178 23.8898 3.2981 25.8069 5.11384C25.9007 5.20272 26.0616 5.26621 26.1957 5.29161C28.7964 5.64714 30.9012 7.89459 30.9951 10.4087C31.0085 10.6499 31.1157 10.9293 31.2766 11.1197C32.148 12.2371 32.2552 13.4307 31.6252 14.6496C30.7403 16.3638 29.1986 17.1891 27.2279 17.2526C25.5924 17.3034 23.9568 17.2653 22.3079 17.2653C22.2408 17.2399 22.1604 17.2526 21.9995 17.2653Z" fill="white"/>
<path d="M21.1684 34.75C20.9271 35.9562 20.6992 37.1117 20.4713 38.2799C20.364 38.8512 20.2568 39.4353 20.1361 40.0067C20.0289 40.5146 19.6803 40.7813 19.2513 40.7178C18.8089 40.6543 18.5676 40.2987 18.6614 39.7782C19.0368 37.7973 19.4122 35.8292 19.8144 33.8611C19.9216 33.3405 20.2568 33.1374 20.8064 33.2263C21.9594 33.4294 23.0989 33.6453 24.2384 33.8611C24.7479 33.9627 24.9758 34.2801 24.8953 34.6992C24.8149 35.1055 24.4395 35.334 23.9435 35.2452C23.0453 35.0928 22.1471 34.915 21.1684 34.75Z" fill="white"/>
</svg>
