<svg width="44" height="42" viewBox="0 0 44 42" fill="none" xmlns="http://www.w3.org/2000/svg">
<path d="M11.3935 41.1057C10.5983 40.889 9.89021 40.5485 9.46536 39.8469C8.93158 38.9699 8.888 38.0723 9.42179 37.1746C9.98825 36.2151 10.9142 35.823 12.0362 35.823C15.0538 35.8127 18.0822 35.823 21.0997 35.823C22.2435 35.823 23.3873 35.8024 24.5312 35.823C27.7121 35.9056 30.0542 34.5024 31.9715 32.0571C31.6665 31.9848 31.4377 31.8713 31.198 31.8713C25.9582 31.861 20.7184 31.861 15.4786 31.861C14.3893 31.861 13.6267 31.3658 13.3326 30.4888C12.9077 29.2507 13.8337 27.9919 15.1954 27.9197C15.3806 27.9094 15.5658 27.9094 15.751 27.9094C20.8818 27.9094 26.0018 27.9094 31.1327 27.899C31.3832 27.899 31.6447 27.8062 31.8626 27.6824C32.3637 27.4038 32.8865 27.2284 33.4639 27.249C33.6055 27.249 33.7362 27.249 33.8997 27.249C34.1938 25.6498 34.1284 24.0712 33.7689 22.5029C33.3332 20.6251 32.4944 18.9433 31.1436 17.4988C30.9911 17.3337 30.8603 17.2615 30.6098 17.2925C29.3788 17.4472 28.2241 17.2099 27.1892 16.5289C27.1347 16.4877 27.0694 16.4567 27.0149 16.4258C26.9931 16.4154 26.9604 16.4154 26.8951 16.4051C25.8275 18.4377 24.749 20.4806 23.6706 22.5338C23.2566 22.3068 22.8645 22.1005 22.4287 21.8632C21.9603 22.6164 21.5028 23.3593 21.0343 24.1331C20.2173 23.6894 19.4003 23.2561 18.6051 22.8021C18.3654 22.668 18.1802 22.6473 17.9079 22.7608C11.8619 25.4744 4.73755 23.2767 1.51305 17.7258C-1.4391 12.6701 0.0424225 6.14934 4.96632 2.66196C10.8271 -1.49607 19.0081 -0.13413 23.017 5.66441C23.0823 5.75727 23.1586 5.85013 23.2675 5.99458C24.4985 3.98263 25.6968 2.01195 26.9278 0C28.9322 1.09368 30.9257 2.18735 32.9519 3.29134C31.9715 4.9009 31.002 6.48983 30.0106 8.12002C30.3266 8.17161 30.5989 8.20256 30.8712 8.25415C32.2002 8.50178 33.2242 9.18274 33.9868 10.2351C34.0957 10.3796 34.2482 10.5137 34.4116 10.6066C38.9107 13.2789 41.8084 17.0551 42.7997 22.0076C43.7692 26.8363 42.7125 31.3039 39.695 35.3175C39.5425 35.5238 39.3791 35.7302 39.2266 35.9159C39.5861 36.1635 39.9783 36.3699 40.2724 36.6588C41.7103 38.062 41.0567 40.3731 39.085 40.9612C38.9543 41.0025 38.8235 41.0438 38.6928 41.0954C29.5858 41.1057 20.4897 41.1057 11.3935 41.1057ZM13.9426 17.2512C16.263 13.9392 18.5615 10.6582 20.8709 7.35651C21.274 7.57319 21.6444 7.76922 22.0039 7.96526C22.4832 7.41842 22.5376 7.38747 22.1346 6.85095C21.5572 6.0668 20.969 5.26202 20.2609 4.58106C17.0146 1.48575 11.8511 0.660332 7.73328 2.58974C4.25823 4.21994 2.1122 6.85095 1.53484 10.4931C0.913908 14.4345 2.2865 17.7464 5.52189 20.2639C8.49584 22.5751 11.9273 23.1529 15.642 22.214C15.9906 22.1211 16.3283 21.9767 16.7641 21.8322C15.7183 21.2544 14.7705 20.7386 13.8119 20.2124C14.2803 19.4385 14.727 18.6957 15.1954 17.9425C14.7596 17.7052 14.3784 17.4885 13.9426 17.2512ZM29.978 35.7405C29.9889 35.7611 29.9998 35.7921 30.0106 35.8127C32.4399 35.8127 34.8692 35.8127 37.2984 35.8024C37.4292 35.8024 37.5926 35.6683 37.6906 35.5651C40.9042 31.9333 42.2332 27.7649 41.5578 23.0704C40.9369 18.7369 38.7037 15.2702 35.0435 12.6185C34.9781 12.5669 34.891 12.536 34.8147 12.505C34.7711 12.8868 34.7711 13.2376 34.684 13.5678C34.6077 13.8567 34.684 14.0217 34.9128 14.2075C39.9347 18.2829 41.6559 24.618 39.3246 30.4681C39.0959 31.0459 38.7909 31.6031 38.5185 32.1809C38.0719 31.9436 37.6906 31.7475 37.3093 31.5515C40.9805 24.876 37.8867 18.0869 34.0739 15.2805C33.5075 15.7964 32.941 16.302 32.3963 16.7869C32.843 17.4369 33.3441 18.0766 33.7471 18.7782C35.3267 21.533 35.7733 24.4736 35.2505 27.5482C35.2069 27.8062 35.2831 27.9609 35.4574 28.1467C36.1873 28.9411 36.3616 29.8697 35.9476 30.8396C35.5337 31.8094 34.7385 32.346 33.6273 32.4801C33.4312 32.5007 33.2242 32.6245 33.0826 32.769C32.3637 33.5015 31.6774 34.2651 30.9475 34.9873C30.686 35.3071 30.3048 35.5032 29.978 35.7405ZM25.0432 37.154C20.762 37.154 16.4808 37.154 12.2105 37.154C12.0362 37.154 11.8728 37.154 11.6985 37.1643C11.0231 37.2056 10.4785 37.7318 10.4349 38.3612C10.3913 39.0421 10.8271 39.6199 11.5134 39.7437C11.7203 39.785 11.9382 39.7953 12.1452 39.7953C20.7293 39.7953 29.3135 39.7953 37.8976 39.7953C38.1046 39.7953 38.3224 39.785 38.5294 39.7541C39.1395 39.6509 39.5752 39.166 39.6188 38.5882C39.6841 37.7421 39.0632 37.1746 38.0828 37.1746C33.7471 37.154 29.4006 37.154 25.0432 37.154ZM21.3176 9.11052C19.5092 11.7003 17.7227 14.2384 15.9253 16.8075C18.3327 18.1179 20.6857 19.4179 23.0823 20.7179C24.0083 18.9536 24.9124 17.2409 25.8057 15.5075C25.8602 15.4043 25.7948 15.2392 25.7513 15.1154C25.5879 14.7027 25.3591 14.3106 25.2284 13.8979C24.9451 13.0312 25.0432 12.1542 25.3155 11.2876C25.2393 11.236 25.1739 11.205 25.1194 11.1741C23.8558 10.4931 22.6139 9.81213 21.3176 9.11052ZM33.3659 12.5876C33.2896 10.7407 31.5575 9.35815 29.6729 9.48196C27.7448 9.61609 26.2415 11.2256 26.4702 13.1963C26.6554 14.8162 28.3766 16.1885 30.1305 16.044C32.0695 15.8789 33.5184 14.3313 33.3659 12.5876ZM30.6425 29.23C30.49 29.23 30.3483 29.23 30.2176 29.23C25.3591 29.23 20.5114 29.23 15.6529 29.23C14.9557 29.23 14.6071 29.457 14.618 29.9007C14.6289 30.3443 14.9666 30.561 15.6747 30.561C20.5114 30.561 25.3591 30.561 30.1958 30.561C30.3483 30.561 30.5009 30.561 30.6425 30.561C30.6425 30.107 30.6425 29.6943 30.6425 29.23ZM29.6512 6.05649C28.4311 5.38584 27.2546 4.74614 26.0454 4.08581C25.1085 5.61282 24.1935 7.11921 23.2566 8.64623C24.1608 9.14147 25.0432 9.62641 25.9364 10.1113C26.5138 9.37878 27.211 8.84226 28.0607 8.50178C28.1478 8.47083 28.2241 8.38828 28.2677 8.31606C28.7252 7.5835 29.1718 6.84063 29.6512 6.05649ZM16.3937 18.5925C16.154 18.9846 15.9361 19.3457 15.6965 19.7274C17.3087 20.6147 18.8992 21.4814 20.5114 22.3584C20.7511 21.9664 20.969 21.6052 21.2086 21.2132C19.5964 20.3465 18.0168 19.4798 16.3937 18.5925ZM33.3768 28.58C32.6251 28.5903 32.0042 29.1784 31.9933 29.8904C31.9824 30.6126 32.636 31.2213 33.3985 31.2213C34.1502 31.211 34.7711 30.6229 34.782 29.911C34.782 29.1784 34.1502 28.58 33.3768 28.58ZM31.0455 3.77627C29.8255 3.10562 28.6381 2.46593 27.4289 1.8056C27.1892 2.20799 26.9604 2.56911 26.7317 2.94054C27.9626 3.61119 29.1392 4.26121 30.3375 4.91122C30.588 4.52947 30.8059 4.16835 31.0455 3.77627Z" fill="white"/>
<path d="M11.8183 12.1232C11.8074 13.9288 10.1842 15.4352 8.31055 15.4042C6.39328 15.3629 4.8355 13.8566 4.86818 12.0716C4.90086 10.266 6.45864 8.82153 8.35412 8.82153C10.2605 8.82153 11.8292 10.3176 11.8183 12.1232ZM8.35412 14.0629C9.49795 14.0526 10.4348 13.1756 10.4239 12.0922C10.4239 11.0295 9.47616 10.1216 8.34323 10.1216C7.1994 10.1112 6.22988 11.0398 6.25166 12.1232C6.27345 13.2169 7.2103 14.0732 8.35412 14.0629Z" fill="white"/>
<path d="M6.99249 17.3958C7.42823 17.3958 7.85308 17.3958 8.31061 17.3958C8.46312 18.541 9.12763 19.222 10.4022 19.3664C10.4022 19.7791 10.4022 20.1918 10.4022 20.6149C8.63742 20.749 6.93802 19.1601 6.99249 17.3958Z" fill="white"/>
<path d="M8.35425 6.80964C8.35425 6.3763 8.35425 5.96359 8.35425 5.54057C9.58522 5.39612 10.2933 4.7461 10.4458 3.55957C10.8925 3.55957 11.3282 3.55957 11.753 3.55957C11.9273 4.99373 10.4785 6.80964 8.35425 6.80964Z" fill="white"/>
<path d="M17.3633 6.15976C16.9057 6.15976 16.47 6.15976 16.0125 6.15976C16.0125 5.73674 16.0125 5.32403 16.0125 4.88037C16.4482 4.88037 16.8948 4.88037 17.3633 4.88037C17.3633 5.3034 17.3633 5.70579 17.3633 6.15976Z" fill="white"/>
<path d="M16.6661 10.1423C16.6661 10.5757 16.6661 10.9884 16.6661 11.4217C16.2086 11.4217 15.7837 11.4217 15.3262 11.4217C15.3262 10.9987 15.3262 10.586 15.3262 10.1423C15.7619 10.1423 16.1977 10.1423 16.6661 10.1423Z" fill="white"/>
<path d="M4.87915 8.11991C4.87915 7.69688 4.87915 7.28417 4.87915 6.85083C5.32579 6.85083 5.75064 6.85083 6.21906 6.85083C6.21906 7.26354 6.21906 7.67625 6.21906 8.11991C5.77242 8.11991 5.33668 8.11991 4.87915 8.11991Z" fill="white"/>
<path d="M12.472 18.0251C12.0254 18.0251 11.6114 18.0251 11.1648 18.0251C11.1648 17.5917 11.1648 17.1687 11.1648 16.7354C11.6005 16.7354 12.0145 16.7354 12.472 16.7354C12.472 17.1481 12.472 17.5711 12.472 18.0251Z" fill="white"/>
<path d="M31.9932 12.763C31.9932 13.8464 31.0673 14.7234 29.9234 14.744C28.7796 14.7543 27.821 13.8464 27.8319 12.7527C27.8428 11.6796 28.7905 10.782 29.9234 10.7923C31.0564 10.7923 31.9932 11.6796 31.9932 12.763ZM29.9017 12.113C29.5422 12.113 29.2371 12.4019 29.2263 12.7527C29.2154 13.1138 29.5422 13.413 29.9234 13.413C30.2938 13.4027 30.5988 13.1241 30.5988 12.7733C30.6097 12.4122 30.2829 12.113 29.9017 12.113Z" fill="white"/>
<path d="M9.00773 11.4836C8.52841 11.4836 8.10356 11.4836 7.67871 11.4836C7.67871 11.9273 7.67871 12.3297 7.67871 12.7424C8.13624 12.7424 8.56109 12.7424 9.00773 12.7424C9.00773 12.3091 9.00773 11.9067 9.00773 11.4836Z" fill="white"/>
<path d="M9.00773 11.4836C9.00773 11.9067 9.00773 12.3194 9.00773 12.7424C8.56109 12.7424 8.12535 12.7424 7.67871 12.7424C7.67871 12.3297 7.67871 11.917 7.67871 11.4836C8.10356 11.4836 8.52841 11.4836 9.00773 11.4836Z" fill="white"/>
</svg>
